<svg width="435" height="180" viewBox="0 0 435 180" fill="none" xmlns="http://www.w3.org/2000/svg">
<g filter="url(#filter0_d_0_1)">
<path d="M69.1797 3.35156H74.4121V4.68164H70.9199V7.03711H74.1719V8.28516H70.9199V12H69.1797V3.35156ZM75.8711 10.6992H77.4473V4.64648H75.8711V3.35156H80.7461V4.64648H79.1816V10.6992H80.7461V12H75.8711V10.6992ZM86.4355 12.1523C85.666 12.1523 85.0312 12.0781 84.5312 11.9297C84.0352 11.7773 83.6465 11.5664 83.3652 11.2969C83.0879 11.0273 82.8926 10.7109 82.7793 10.3477C82.666 9.98438 82.6094 9.58984 82.6094 9.16406V6.27539C82.6094 5.83789 82.6641 5.43359 82.7734 5.0625C82.8867 4.6875 83.082 4.36133 83.3594 4.08398C83.6406 3.80664 84.0293 3.5918 84.5254 3.43945C85.0254 3.2832 85.6621 3.20508 86.4355 3.20508C87.1855 3.20508 87.793 3.27734 88.2578 3.42188C88.7266 3.56641 89.084 3.76953 89.3301 4.03125C89.5801 4.29297 89.75 4.59961 89.8398 4.95117C89.9336 5.30273 89.9805 5.68555 89.9805 6.09961V6.23438L88.2695 6.36328V6.01758C88.2695 5.43555 88.127 5.04883 87.8418 4.85742C87.5566 4.66602 87.0879 4.57031 86.4355 4.57031C85.791 4.57031 85.2832 4.67188 84.9121 4.875C84.541 5.07812 84.3555 5.47656 84.3555 6.07031V9.33984C84.3555 9.73438 84.4375 10.0371 84.6016 10.248C84.7695 10.4551 85.0078 10.5977 85.3164 10.6758C85.6289 10.75 86.002 10.7871 86.4355 10.7871C86.877 10.7871 87.2441 10.75 87.5371 10.6758C87.8301 10.5977 88.0488 10.4551 88.1934 10.248C88.3418 10.0371 88.416 9.73438 88.416 9.33984V8.70703H86.6699V7.56445H89.9863V12H89.0664L88.791 11.0039C88.7676 11.0742 88.7188 11.1719 88.6445 11.2969C88.5703 11.4219 88.4492 11.5508 88.2812 11.6836C88.1133 11.8125 87.8809 11.9219 87.584 12.0117C87.2871 12.1055 86.9043 12.1523 86.4355 12.1523ZM92.207 12V3.35156H94.123L96.5664 7.56445L99.0098 3.35156H100.961V12H99.332V5.60742L97.1699 9.48633H96.0039L93.8359 5.75391V12H92.207ZM102.484 12L105.332 3.35156H107.641L110.523 12H108.678L108.197 10.3535H104.799L104.301 12H102.484ZM105.209 9.00586H107.799L106.527 4.65234L105.209 9.00586Z" fill="#FBF9F9"/>
<path d="M69.1797 3.35156H74.4121V4.68164H70.9199V7.03711H74.1719V8.28516H70.9199V12H69.1797V3.35156ZM75.8711 10.6992H77.4473V4.64648H75.8711V3.35156H80.7461V4.64648H79.1816V10.6992H80.7461V12H75.8711V10.6992ZM86.4355 12.1523C85.666 12.1523 85.0312 12.0781 84.5312 11.9297C84.0352 11.7773 83.6465 11.5664 83.3652 11.2969C83.0879 11.0273 82.8926 10.7109 82.7793 10.3477C82.666 9.98438 82.6094 9.58984 82.6094 9.16406V6.27539C82.6094 5.83789 82.6641 5.43359 82.7734 5.0625C82.8867 4.6875 83.082 4.36133 83.3594 4.08398C83.6406 3.80664 84.0293 3.5918 84.5254 3.43945C85.0254 3.2832 85.6621 3.20508 86.4355 3.20508C87.1855 3.20508 87.793 3.27734 88.2578 3.42188C88.7266 3.56641 89.084 3.76953 89.3301 4.03125C89.5801 4.29297 89.75 4.59961 89.8398 4.95117C89.9336 5.30273 89.9805 5.68555 89.9805 6.09961V6.23438L88.2695 6.36328V6.01758C88.2695 5.43555 88.127 5.04883 87.8418 4.85742C87.5566 4.66602 87.0879 4.57031 86.4355 4.57031C85.791 4.57031 85.2832 4.67188 84.9121 4.875C84.541 5.07812 84.3555 5.47656 84.3555 6.07031V9.33984C84.3555 9.73438 84.4375 10.0371 84.6016 10.248C84.7695 10.4551 85.0078 10.5977 85.3164 10.6758C85.6289 10.75 86.002 10.7871 86.4355 10.7871C86.877 10.7871 87.2441 10.75 87.5371 10.6758C87.8301 10.5977 88.0488 10.4551 88.1934 10.248C88.3418 10.0371 88.416 9.73438 88.416 9.33984V8.70703H86.6699V7.56445H89.9863V12H89.0664L88.791 11.0039C88.7676 11.0742 88.7188 11.1719 88.6445 11.2969C88.5703 11.4219 88.4492 11.5508 88.2812 11.6836C88.1133 11.8125 87.8809 11.9219 87.584 12.0117C87.2871 12.1055 86.9043 12.1523 86.4355 12.1523ZM92.207 12V3.35156H94.123L96.5664 7.56445L99.0098 3.35156H100.961V12H99.332V5.60742L97.1699 9.48633H96.0039L93.8359 5.75391V12H92.207ZM102.484 12L105.332 3.35156H107.641L110.523 12H108.678L108.197 10.3535H104.799L104.301 12H102.484ZM105.209 9.00586H107.799L106.527 4.65234L105.209 9.00586Z" fill="#FCFCFC" fill-opacity="0.32"/>
</g>
<g filter="url(#filter1_d_0_1)">
<path d="M105.383 84V76.6758H102.975V75.3516H109.525V76.6758H107.117V84H105.383ZM109.771 84L112.619 75.3516H114.928L117.811 84H115.965L115.484 82.3535H112.086L111.588 84H109.771ZM112.496 81.0059H115.086L113.814 76.6523L112.496 81.0059ZM119.146 82.6992H120.723V76.6465H119.146V75.3516H124.021V76.6465H122.457V82.6992H124.021V84H119.146V82.6992ZM126.061 75.3516H127.801V82.6406H131.416V84H126.061V75.3516ZM131.744 75.3516H133.432L134.926 81.334L136.443 75.3516H137.914L139.648 81.2695L141.055 75.3516H142.725L140.486 84H139.027L137.211 77.8301L135.547 84H133.988L131.744 75.3516ZM143.885 82.6992H145.461V76.6465H143.885V75.3516H148.76V76.6465H147.195V82.6992H148.76V84H143.885V82.6992ZM150.799 75.3516H152.105L156.6 81.2812V75.3516H158.146V84H156.84L152.363 78.1582V84H150.799V75.3516ZM160.373 84V75.3516H164.123C164.959 75.3516 165.607 75.4863 166.068 75.7559C166.529 76.0215 166.852 76.3828 167.035 76.8398C167.219 77.293 167.311 77.8027 167.311 78.3691V81.0234C167.311 81.5977 167.213 82.1094 167.018 82.5586C166.826 83.0078 166.5 83.3613 166.039 83.6191C165.578 83.873 164.941 84 164.129 84H160.373ZM162.113 82.6465H163.977C164.59 82.6465 165.008 82.5332 165.23 82.3066C165.457 82.0801 165.57 81.7266 165.57 81.2461V78.1406C165.57 77.6719 165.455 77.3164 165.225 77.0742C164.998 76.8281 164.582 76.7051 163.977 76.7051H162.113V82.6465Z" fill="#FBF9F9"/>
<path d="M105.383 84V76.6758H102.975V75.3516H109.525V76.6758H107.117V84H105.383ZM109.771 84L112.619 75.3516H114.928L117.811 84H115.965L115.484 82.3535H112.086L111.588 84H109.771ZM112.496 81.0059H115.086L113.814 76.6523L112.496 81.0059ZM119.146 82.6992H120.723V76.6465H119.146V75.3516H124.021V76.6465H122.457V82.6992H124.021V84H119.146V82.6992ZM126.061 75.3516H127.801V82.6406H131.416V84H126.061V75.3516ZM131.744 75.3516H133.432L134.926 81.334L136.443 75.3516H137.914L139.648 81.2695L141.055 75.3516H142.725L140.486 84H139.027L137.211 77.8301L135.547 84H133.988L131.744 75.3516ZM143.885 82.6992H145.461V76.6465H143.885V75.3516H148.76V76.6465H147.195V82.6992H148.76V84H143.885V82.6992ZM150.799 75.3516H152.105L156.6 81.2812V75.3516H158.146V84H156.84L152.363 78.1582V84H150.799V75.3516ZM160.373 84V75.3516H164.123C164.959 75.3516 165.607 75.4863 166.068 75.7559C166.529 76.0215 166.852 76.3828 167.035 76.8398C167.219 77.293 167.311 77.8027 167.311 78.3691V81.0234C167.311 81.5977 167.213 82.1094 167.018 82.5586C166.826 83.0078 166.5 83.3613 166.039 83.6191C165.578 83.873 164.941 84 164.129 84H160.373ZM162.113 82.6465H163.977C164.59 82.6465 165.008 82.5332 165.23 82.3066C165.457 82.0801 165.57 81.7266 165.57 81.2461V78.1406C165.57 77.6719 165.455 77.3164 165.225 77.0742C164.998 76.8281 164.582 76.7051 163.977 76.7051H162.113V82.6465Z" fill="#FCFCFC" fill-opacity="0.32"/>
</g>
<g filter="url(#filter2_d_0_1)">
<path d="M264.193 115.152C263.424 115.152 262.799 115.078 262.318 114.93C261.842 114.777 261.477 114.566 261.223 114.297C260.969 114.027 260.795 113.711 260.701 113.348C260.607 112.984 260.561 112.59 260.561 112.164V109.275C260.561 108.838 260.605 108.434 260.695 108.062C260.789 107.688 260.961 107.361 261.211 107.084C261.465 106.807 261.832 106.592 262.312 106.439C262.793 106.283 263.42 106.205 264.193 106.205C264.932 106.205 265.525 106.281 265.975 106.434C266.428 106.582 266.771 106.793 267.006 107.066C267.24 107.34 267.398 107.662 267.48 108.033C267.562 108.4 267.604 108.803 267.604 109.24V109.346L265.898 109.545V109.105C265.898 108.699 265.848 108.387 265.746 108.168C265.645 107.945 265.471 107.791 265.225 107.705C264.979 107.615 264.635 107.57 264.193 107.57C263.549 107.57 263.072 107.672 262.764 107.875C262.455 108.078 262.301 108.477 262.301 109.07V112.34C262.301 112.734 262.369 113.037 262.506 113.248C262.643 113.455 262.85 113.598 263.127 113.676C263.408 113.75 263.766 113.787 264.199 113.787C264.641 113.787 264.984 113.75 265.23 113.676C265.477 113.598 265.648 113.453 265.746 113.242C265.848 113.027 265.898 112.715 265.898 112.305V112.029H267.604V112.188C267.604 112.613 267.564 113.006 267.486 113.365C267.408 113.725 267.254 114.039 267.023 114.309C266.793 114.574 266.451 114.781 265.998 114.93C265.545 115.078 264.943 115.152 264.193 115.152ZM272.385 115.152C271.795 115.152 271.201 115.082 270.604 114.941C270.006 114.801 269.49 114.609 269.057 114.367L269.654 113.096C269.986 113.271 270.383 113.432 270.844 113.576C271.309 113.717 271.809 113.787 272.344 113.787C272.699 113.787 272.967 113.736 273.146 113.635C273.33 113.533 273.453 113.393 273.516 113.213C273.582 113.029 273.615 112.82 273.615 112.586C273.615 112.426 273.588 112.279 273.533 112.146C273.479 112.01 273.365 111.885 273.193 111.771C273.025 111.654 272.768 111.545 272.42 111.443L270.943 111.01C270.475 110.869 270.109 110.682 269.848 110.447C269.59 110.209 269.408 109.932 269.303 109.615C269.201 109.299 269.15 108.957 269.15 108.59C269.15 108.051 269.281 107.605 269.543 107.254C269.809 106.902 270.168 106.641 270.621 106.469C271.078 106.293 271.59 106.205 272.156 106.205C272.727 106.205 273.252 106.26 273.732 106.369C274.213 106.479 274.652 106.648 275.051 106.879L274.559 108.104C274.238 107.951 273.889 107.824 273.51 107.723C273.131 107.621 272.73 107.57 272.309 107.57C271.867 107.57 271.516 107.639 271.254 107.775C270.992 107.908 270.861 108.16 270.861 108.531C270.861 108.828 270.938 109.057 271.09 109.217C271.246 109.377 271.543 109.523 271.98 109.656L273.451 110.096C274.033 110.271 274.471 110.551 274.764 110.934C275.057 111.316 275.203 111.848 275.203 112.527C275.203 113.016 275.105 113.459 274.91 113.857C274.715 114.252 274.41 114.566 273.996 114.801C273.582 115.035 273.045 115.152 272.385 115.152ZM279.896 115.152C279.307 115.152 278.713 115.082 278.115 114.941C277.518 114.801 277.002 114.609 276.568 114.367L277.166 113.096C277.498 113.271 277.895 113.432 278.355 113.576C278.82 113.717 279.32 113.787 279.855 113.787C280.211 113.787 280.479 113.736 280.658 113.635C280.842 113.533 280.965 113.393 281.027 113.213C281.094 113.029 281.127 112.82 281.127 112.586C281.127 112.426 281.1 112.279 281.045 112.146C280.99 112.01 280.877 111.885 280.705 111.771C280.537 111.654 280.279 111.545 279.932 111.443L278.455 111.01C277.986 110.869 277.621 110.682 277.359 110.447C277.102 110.209 276.92 109.932 276.814 109.615C276.713 109.299 276.662 108.957 276.662 108.59C276.662 108.051 276.793 107.605 277.055 107.254C277.32 106.902 277.68 106.641 278.133 106.469C278.59 106.293 279.102 106.205 279.668 106.205C280.238 106.205 280.764 106.26 281.244 106.369C281.725 106.479 282.164 106.648 282.562 106.879L282.07 108.104C281.75 107.951 281.4 107.824 281.021 107.723C280.643 107.621 280.242 107.57 279.82 107.57C279.379 107.57 279.027 107.639 278.766 107.775C278.504 107.908 278.373 108.16 278.373 108.531C278.373 108.828 278.449 109.057 278.602 109.217C278.758 109.377 279.055 109.523 279.492 109.656L280.963 110.096C281.545 110.271 281.982 110.551 282.275 110.934C282.568 111.316 282.715 111.848 282.715 112.527C282.715 113.016 282.617 113.459 282.422 113.857C282.227 114.252 281.922 114.566 281.508 114.801C281.094 115.035 280.557 115.152 279.896 115.152Z" fill="#FBF9F9"/>
<path d="M264.193 115.152C263.424 115.152 262.799 115.078 262.318 114.93C261.842 114.777 261.477 114.566 261.223 114.297C260.969 114.027 260.795 113.711 260.701 113.348C260.607 112.984 260.561 112.59 260.561 112.164V109.275C260.561 108.838 260.605 108.434 260.695 108.062C260.789 107.688 260.961 107.361 261.211 107.084C261.465 106.807 261.832 106.592 262.312 106.439C262.793 106.283 263.42 106.205 264.193 106.205C264.932 106.205 265.525 106.281 265.975 106.434C266.428 106.582 266.771 106.793 267.006 107.066C267.24 107.34 267.398 107.662 267.48 108.033C267.562 108.4 267.604 108.803 267.604 109.24V109.346L265.898 109.545V109.105C265.898 108.699 265.848 108.387 265.746 108.168C265.645 107.945 265.471 107.791 265.225 107.705C264.979 107.615 264.635 107.57 264.193 107.57C263.549 107.57 263.072 107.672 262.764 107.875C262.455 108.078 262.301 108.477 262.301 109.07V112.34C262.301 112.734 262.369 113.037 262.506 113.248C262.643 113.455 262.85 113.598 263.127 113.676C263.408 113.75 263.766 113.787 264.199 113.787C264.641 113.787 264.984 113.75 265.23 113.676C265.477 113.598 265.648 113.453 265.746 113.242C265.848 113.027 265.898 112.715 265.898 112.305V112.029H267.604V112.188C267.604 112.613 267.564 113.006 267.486 113.365C267.408 113.725 267.254 114.039 267.023 114.309C266.793 114.574 266.451 114.781 265.998 114.93C265.545 115.078 264.943 115.152 264.193 115.152ZM272.385 115.152C271.795 115.152 271.201 115.082 270.604 114.941C270.006 114.801 269.49 114.609 269.057 114.367L269.654 113.096C269.986 113.271 270.383 113.432 270.844 113.576C271.309 113.717 271.809 113.787 272.344 113.787C272.699 113.787 272.967 113.736 273.146 113.635C273.33 113.533 273.453 113.393 273.516 113.213C273.582 113.029 273.615 112.82 273.615 112.586C273.615 112.426 273.588 112.279 273.533 112.146C273.479 112.01 273.365 111.885 273.193 111.771C273.025 111.654 272.768 111.545 272.42 111.443L270.943 111.01C270.475 110.869 270.109 110.682 269.848 110.447C269.59 110.209 269.408 109.932 269.303 109.615C269.201 109.299 269.15 108.957 269.15 108.59C269.15 108.051 269.281 107.605 269.543 107.254C269.809 106.902 270.168 106.641 270.621 106.469C271.078 106.293 271.59 106.205 272.156 106.205C272.727 106.205 273.252 106.26 273.732 106.369C274.213 106.479 274.652 106.648 275.051 106.879L274.559 108.104C274.238 107.951 273.889 107.824 273.51 107.723C273.131 107.621 272.73 107.57 272.309 107.57C271.867 107.57 271.516 107.639 271.254 107.775C270.992 107.908 270.861 108.16 270.861 108.531C270.861 108.828 270.938 109.057 271.09 109.217C271.246 109.377 271.543 109.523 271.98 109.656L273.451 110.096C274.033 110.271 274.471 110.551 274.764 110.934C275.057 111.316 275.203 111.848 275.203 112.527C275.203 113.016 275.105 113.459 274.91 113.857C274.715 114.252 274.41 114.566 273.996 114.801C273.582 115.035 273.045 115.152 272.385 115.152ZM279.896 115.152C279.307 115.152 278.713 115.082 278.115 114.941C277.518 114.801 277.002 114.609 276.568 114.367L277.166 113.096C277.498 113.271 277.895 113.432 278.355 113.576C278.82 113.717 279.32 113.787 279.855 113.787C280.211 113.787 280.479 113.736 280.658 113.635C280.842 113.533 280.965 113.393 281.027 113.213C281.094 113.029 281.127 112.82 281.127 112.586C281.127 112.426 281.1 112.279 281.045 112.146C280.99 112.01 280.877 111.885 280.705 111.771C280.537 111.654 280.279 111.545 279.932 111.443L278.455 111.01C277.986 110.869 277.621 110.682 277.359 110.447C277.102 110.209 276.92 109.932 276.814 109.615C276.713 109.299 276.662 108.957 276.662 108.59C276.662 108.051 276.793 107.605 277.055 107.254C277.32 106.902 277.68 106.641 278.133 106.469C278.59 106.293 279.102 106.205 279.668 106.205C280.238 106.205 280.764 106.26 281.244 106.369C281.725 106.479 282.164 106.648 282.562 106.879L282.07 108.104C281.75 107.951 281.4 107.824 281.021 107.723C280.643 107.621 280.242 107.57 279.82 107.57C279.379 107.57 279.027 107.639 278.766 107.775C278.504 107.908 278.373 108.16 278.373 108.531C278.373 108.828 278.449 109.057 278.602 109.217C278.758 109.377 279.055 109.523 279.492 109.656L280.963 110.096C281.545 110.271 281.982 110.551 282.275 110.934C282.568 111.316 282.715 111.848 282.715 112.527C282.715 113.016 282.617 113.459 282.422 113.857C282.227 114.252 281.922 114.566 281.508 114.801C281.094 115.035 280.557 115.152 279.896 115.152Z" fill="#FCFCFC" fill-opacity="0.32"/>
</g>
<g filter="url(#filter3_d_0_1)">
<path d="M266.652 83.6074L267.057 82.3184C267.342 82.4512 267.674 82.5605 268.053 82.6465C268.436 82.7324 268.779 82.7754 269.084 82.7754C269.631 82.7754 270.016 82.6426 270.238 82.377C270.461 82.1113 270.572 81.791 270.572 81.416V76.6758H267.596V75.3516H272.312V81.5273C272.312 82.3594 272.035 83.0039 271.48 83.4609C270.926 83.918 270.164 84.1465 269.195 84.1465C268.773 84.1465 268.34 84.1016 267.895 84.0117C267.449 83.9219 267.035 83.7871 266.652 83.6074ZM273.812 84L276.66 75.3516H278.969L281.852 84H280.006L279.525 82.3535H276.127L275.629 84H273.812ZM276.537 81.0059H279.127L277.855 76.6523L276.537 81.0059ZM281.723 75.3516H283.586L285.871 82.3418L288.086 75.3516H289.949L286.902 84H284.793L281.723 75.3516ZM289.82 84L292.668 75.3516H294.977L297.859 84H296.014L295.533 82.3535H292.135L291.637 84H289.82ZM292.545 81.0059H295.135L293.863 76.6523L292.545 81.0059ZM302.301 84.1523C301.711 84.1523 301.117 84.082 300.52 83.9414C299.922 83.8008 299.406 83.6094 298.973 83.3672L299.57 82.0957C299.902 82.2715 300.299 82.4316 300.76 82.5762C301.225 82.7168 301.725 82.7871 302.26 82.7871C302.615 82.7871 302.883 82.7363 303.062 82.6348C303.246 82.5332 303.369 82.3926 303.432 82.2129C303.498 82.0293 303.531 81.8203 303.531 81.5859C303.531 81.4258 303.504 81.2793 303.449 81.1465C303.395 81.0098 303.281 80.8848 303.109 80.7715C302.941 80.6543 302.684 80.5449 302.336 80.4434L300.859 80.0098C300.391 79.8691 300.025 79.6816 299.764 79.4473C299.506 79.209 299.324 78.9316 299.219 78.6152C299.117 78.2988 299.066 77.957 299.066 77.5898C299.066 77.0508 299.197 76.6055 299.459 76.2539C299.725 75.9023 300.084 75.6406 300.537 75.4688C300.994 75.293 301.506 75.2051 302.072 75.2051C302.643 75.2051 303.168 75.2598 303.648 75.3691C304.129 75.4785 304.568 75.6484 304.967 75.8789L304.475 77.1035C304.154 76.9512 303.805 76.8242 303.426 76.7227C303.047 76.6211 302.646 76.5703 302.225 76.5703C301.783 76.5703 301.432 76.6387 301.17 76.7754C300.908 76.9082 300.777 77.1602 300.777 77.5312C300.777 77.8281 300.854 78.0566 301.006 78.2168C301.162 78.377 301.459 78.5234 301.896 78.6562L303.367 79.0957C303.949 79.2715 304.387 79.5508 304.68 79.9336C304.973 80.3164 305.119 80.8477 305.119 81.5273C305.119 82.0156 305.021 82.459 304.826 82.8574C304.631 83.252 304.326 83.5664 303.912 83.8008C303.498 84.0352 302.961 84.1523 302.301 84.1523ZM310.352 84.1523C309.582 84.1523 308.957 84.0781 308.477 83.9297C308 83.7773 307.635 83.5664 307.381 83.2969C307.127 83.0273 306.953 82.7109 306.859 82.3477C306.766 81.9844 306.719 81.5898 306.719 81.1641V78.2754C306.719 77.8379 306.764 77.4336 306.854 77.0625C306.947 76.6875 307.119 76.3613 307.369 76.084C307.623 75.8066 307.99 75.5918 308.471 75.4395C308.951 75.2832 309.578 75.2051 310.352 75.2051C311.09 75.2051 311.684 75.2812 312.133 75.4336C312.586 75.582 312.93 75.793 313.164 76.0664C313.398 76.3398 313.557 76.6621 313.639 77.0332C313.721 77.4004 313.762 77.8027 313.762 78.2402V78.3457L312.057 78.5449V78.1055C312.057 77.6992 312.006 77.3867 311.904 77.168C311.803 76.9453 311.629 76.791 311.383 76.7051C311.137 76.6152 310.793 76.5703 310.352 76.5703C309.707 76.5703 309.23 76.6719 308.922 76.875C308.613 77.0781 308.459 77.4766 308.459 78.0703V81.3398C308.459 81.7344 308.527 82.0371 308.664 82.248C308.801 82.4551 309.008 82.5977 309.285 82.6758C309.566 82.75 309.924 82.7871 310.357 82.7871C310.799 82.7871 311.143 82.75 311.389 82.6758C311.635 82.5977 311.807 82.4531 311.904 82.2422C312.006 82.0273 312.057 81.7148 312.057 81.3047V81.0293H313.762V81.1875C313.762 81.6133 313.723 82.0059 313.645 82.3652C313.566 82.7246 313.412 83.0391 313.182 83.3086C312.951 83.5742 312.609 83.7812 312.156 83.9297C311.703 84.0781 311.102 84.1523 310.352 84.1523ZM315.625 84V75.3516H319.357C320.123 75.3516 320.715 75.459 321.133 75.6738C321.551 75.8887 321.84 76.1895 322 76.5762C322.164 76.9629 322.246 77.416 322.246 77.9355C322.246 78.291 322.213 78.625 322.146 78.9375C322.084 79.2461 321.961 79.5195 321.777 79.7578C321.594 79.9961 321.326 80.1875 320.975 80.332L322.645 84H320.84L319.322 80.584H317.365V84H315.625ZM317.365 79.3418H319.504C319.801 79.3418 320.025 79.2832 320.178 79.166C320.334 79.0449 320.439 78.8848 320.494 78.6855C320.553 78.4824 320.582 78.2578 320.582 78.0117C320.582 77.7773 320.557 77.5508 320.506 77.332C320.459 77.1133 320.363 76.9355 320.219 76.7988C320.078 76.6582 319.863 76.5879 319.574 76.5879H317.365V79.3418ZM324.133 82.6992H325.709V76.6465H324.133V75.3516H329.008V76.6465H327.443V82.6992H329.008V84H324.133V82.6992ZM331.047 75.3516H334.439C335.389 75.3516 336.096 75.5684 336.561 76.002C337.025 76.4316 337.258 77.1348 337.258 78.1113C337.258 78.7793 337.166 79.3281 336.982 79.7578C336.799 80.1836 336.488 80.5 336.051 80.707C335.617 80.9141 335.023 81.0176 334.27 81.0176H332.787V84H331.047V75.3516ZM334.545 79.7461C334.986 79.7461 335.277 79.6191 335.418 79.3652C335.559 79.1074 335.629 78.7188 335.629 78.1992C335.629 77.7461 335.561 77.3652 335.424 77.0566C335.287 76.7441 335.014 76.5879 334.604 76.5879H332.787V79.7461H334.545ZM340.393 84V76.6758H337.984V75.3516H344.535V76.6758H342.127V84H340.393Z" fill="#FBF9F9"/>
<path d="M266.652 83.6074L267.057 82.3184C267.342 82.4512 267.674 82.5605 268.053 82.6465C268.436 82.7324 268.779 82.7754 269.084 82.7754C269.631 82.7754 270.016 82.6426 270.238 82.377C270.461 82.1113 270.572 81.791 270.572 81.416V76.6758H267.596V75.3516H272.312V81.5273C272.312 82.3594 272.035 83.0039 271.48 83.4609C270.926 83.918 270.164 84.1465 269.195 84.1465C268.773 84.1465 268.34 84.1016 267.895 84.0117C267.449 83.9219 267.035 83.7871 266.652 83.6074ZM273.812 84L276.66 75.3516H278.969L281.852 84H280.006L279.525 82.3535H276.127L275.629 84H273.812ZM276.537 81.0059H279.127L277.855 76.6523L276.537 81.0059ZM281.723 75.3516H283.586L285.871 82.3418L288.086 75.3516H289.949L286.902 84H284.793L281.723 75.3516ZM289.82 84L292.668 75.3516H294.977L297.859 84H296.014L295.533 82.3535H292.135L291.637 84H289.82ZM292.545 81.0059H295.135L293.863 76.6523L292.545 81.0059ZM302.301 84.1523C301.711 84.1523 301.117 84.082 300.52 83.9414C299.922 83.8008 299.406 83.6094 298.973 83.3672L299.57 82.0957C299.902 82.2715 300.299 82.4316 300.76 82.5762C301.225 82.7168 301.725 82.7871 302.26 82.7871C302.615 82.7871 302.883 82.7363 303.062 82.6348C303.246 82.5332 303.369 82.3926 303.432 82.2129C303.498 82.0293 303.531 81.8203 303.531 81.5859C303.531 81.4258 303.504 81.2793 303.449 81.1465C303.395 81.0098 303.281 80.8848 303.109 80.7715C302.941 80.6543 302.684 80.5449 302.336 80.4434L300.859 80.0098C300.391 79.8691 300.025 79.6816 299.764 79.4473C299.506 79.209 299.324 78.9316 299.219 78.6152C299.117 78.2988 299.066 77.957 299.066 77.5898C299.066 77.0508 299.197 76.6055 299.459 76.2539C299.725 75.9023 300.084 75.6406 300.537 75.4688C300.994 75.293 301.506 75.2051 302.072 75.2051C302.643 75.2051 303.168 75.2598 303.648 75.3691C304.129 75.4785 304.568 75.6484 304.967 75.8789L304.475 77.1035C304.154 76.9512 303.805 76.8242 303.426 76.7227C303.047 76.6211 302.646 76.5703 302.225 76.5703C301.783 76.5703 301.432 76.6387 301.17 76.7754C300.908 76.9082 300.777 77.1602 300.777 77.5312C300.777 77.8281 300.854 78.0566 301.006 78.2168C301.162 78.377 301.459 78.5234 301.896 78.6562L303.367 79.0957C303.949 79.2715 304.387 79.5508 304.68 79.9336C304.973 80.3164 305.119 80.8477 305.119 81.5273C305.119 82.0156 305.021 82.459 304.826 82.8574C304.631 83.252 304.326 83.5664 303.912 83.8008C303.498 84.0352 302.961 84.1523 302.301 84.1523ZM310.352 84.1523C309.582 84.1523 308.957 84.0781 308.477 83.9297C308 83.7773 307.635 83.5664 307.381 83.2969C307.127 83.0273 306.953 82.7109 306.859 82.3477C306.766 81.9844 306.719 81.5898 306.719 81.1641V78.2754C306.719 77.8379 306.764 77.4336 306.854 77.0625C306.947 76.6875 307.119 76.3613 307.369 76.084C307.623 75.8066 307.99 75.5918 308.471 75.4395C308.951 75.2832 309.578 75.2051 310.352 75.2051C311.09 75.2051 311.684 75.2812 312.133 75.4336C312.586 75.582 312.93 75.793 313.164 76.0664C313.398 76.3398 313.557 76.6621 313.639 77.0332C313.721 77.4004 313.762 77.8027 313.762 78.2402V78.3457L312.057 78.5449V78.1055C312.057 77.6992 312.006 77.3867 311.904 77.168C311.803 76.9453 311.629 76.791 311.383 76.7051C311.137 76.6152 310.793 76.5703 310.352 76.5703C309.707 76.5703 309.23 76.6719 308.922 76.875C308.613 77.0781 308.459 77.4766 308.459 78.0703V81.3398C308.459 81.7344 308.527 82.0371 308.664 82.248C308.801 82.4551 309.008 82.5977 309.285 82.6758C309.566 82.75 309.924 82.7871 310.357 82.7871C310.799 82.7871 311.143 82.75 311.389 82.6758C311.635 82.5977 311.807 82.4531 311.904 82.2422C312.006 82.0273 312.057 81.7148 312.057 81.3047V81.0293H313.762V81.1875C313.762 81.6133 313.723 82.0059 313.645 82.3652C313.566 82.7246 313.412 83.0391 313.182 83.3086C312.951 83.5742 312.609 83.7812 312.156 83.9297C311.703 84.0781 311.102 84.1523 310.352 84.1523ZM315.625 84V75.3516H319.357C320.123 75.3516 320.715 75.459 321.133 75.6738C321.551 75.8887 321.84 76.1895 322 76.5762C322.164 76.9629 322.246 77.416 322.246 77.9355C322.246 78.291 322.213 78.625 322.146 78.9375C322.084 79.2461 321.961 79.5195 321.777 79.7578C321.594 79.9961 321.326 80.1875 320.975 80.332L322.645 84H320.84L319.322 80.584H317.365V84H315.625ZM317.365 79.3418H319.504C319.801 79.3418 320.025 79.2832 320.178 79.166C320.334 79.0449 320.439 78.8848 320.494 78.6855C320.553 78.4824 320.582 78.2578 320.582 78.0117C320.582 77.7773 320.557 77.5508 320.506 77.332C320.459 77.1133 320.363 76.9355 320.219 76.7988C320.078 76.6582 319.863 76.5879 319.574 76.5879H317.365V79.3418ZM324.133 82.6992H325.709V76.6465H324.133V75.3516H329.008V76.6465H327.443V82.6992H329.008V84H324.133V82.6992ZM331.047 75.3516H334.439C335.389 75.3516 336.096 75.5684 336.561 76.002C337.025 76.4316 337.258 77.1348 337.258 78.1113C337.258 78.7793 337.166 79.3281 336.982 79.7578C336.799 80.1836 336.488 80.5 336.051 80.707C335.617 80.9141 335.023 81.0176 334.27 81.0176H332.787V84H331.047V75.3516ZM334.545 79.7461C334.986 79.7461 335.277 79.6191 335.418 79.3652C335.559 79.1074 335.629 78.7188 335.629 78.1992C335.629 77.7461 335.561 77.3652 335.424 77.0566C335.287 76.7441 335.014 76.5879 334.604 76.5879H332.787V79.7461H334.545ZM340.393 84V76.6758H337.984V75.3516H344.535V76.6758H342.127V84H340.393Z" fill="#FCFCFC" fill-opacity="0.32"/>
</g>
<g filter="url(#filter4_d_0_1)">
<path d="M170.652 48.6074L171.057 47.3184C171.342 47.4512 171.674 47.5605 172.053 47.6465C172.436 47.7324 172.779 47.7754 173.084 47.7754C173.631 47.7754 174.016 47.6426 174.238 47.377C174.461 47.1113 174.572 46.791 174.572 46.416V41.6758H171.596V40.3516H176.312V46.5273C176.312 47.3594 176.035 48.0039 175.48 48.4609C174.926 48.918 174.164 49.1465 173.195 49.1465C172.773 49.1465 172.34 49.1016 171.895 49.0117C171.449 48.9219 171.035 48.7871 170.652 48.6074ZM177.812 49L180.66 40.3516H182.969L185.852 49H184.006L183.525 47.3535H180.127L179.629 49H177.812ZM180.537 46.0059H183.127L181.855 41.6523L180.537 46.0059ZM185.723 40.3516H187.586L189.871 47.3418L192.086 40.3516H193.949L190.902 49H188.793L185.723 40.3516ZM193.82 49L196.668 40.3516H198.977L201.859 49H200.014L199.533 47.3535H196.135L195.637 49H193.82ZM196.545 46.0059H199.135L197.863 41.6523L196.545 46.0059ZM206.301 49.1523C205.711 49.1523 205.117 49.082 204.52 48.9414C203.922 48.8008 203.406 48.6094 202.973 48.3672L203.57 47.0957C203.902 47.2715 204.299 47.4316 204.76 47.5762C205.225 47.7168 205.725 47.7871 206.26 47.7871C206.615 47.7871 206.883 47.7363 207.062 47.6348C207.246 47.5332 207.369 47.3926 207.432 47.2129C207.498 47.0293 207.531 46.8203 207.531 46.5859C207.531 46.4258 207.504 46.2793 207.449 46.1465C207.395 46.0098 207.281 45.8848 207.109 45.7715C206.941 45.6543 206.684 45.5449 206.336 45.4434L204.859 45.0098C204.391 44.8691 204.025 44.6816 203.764 44.4473C203.506 44.209 203.324 43.9316 203.219 43.6152C203.117 43.2988 203.066 42.957 203.066 42.5898C203.066 42.0508 203.197 41.6055 203.459 41.2539C203.725 40.9023 204.084 40.6406 204.537 40.4688C204.994 40.293 205.506 40.2051 206.072 40.2051C206.643 40.2051 207.168 40.2598 207.648 40.3691C208.129 40.4785 208.568 40.6484 208.967 40.8789L208.475 42.1035C208.154 41.9512 207.805 41.8242 207.426 41.7227C207.047 41.6211 206.646 41.5703 206.225 41.5703C205.783 41.5703 205.432 41.6387 205.17 41.7754C204.908 41.9082 204.777 42.1602 204.777 42.5312C204.777 42.8281 204.854 43.0566 205.006 43.2168C205.162 43.377 205.459 43.5234 205.896 43.6562L207.367 44.0957C207.949 44.2715 208.387 44.5508 208.68 44.9336C208.973 45.3164 209.119 45.8477 209.119 46.5273C209.119 47.0156 209.021 47.459 208.826 47.8574C208.631 48.252 208.326 48.5664 207.912 48.8008C207.498 49.0352 206.961 49.1523 206.301 49.1523ZM214.352 49.1523C213.582 49.1523 212.957 49.0781 212.477 48.9297C212 48.7773 211.635 48.5664 211.381 48.2969C211.127 48.0273 210.953 47.7109 210.859 47.3477C210.766 46.9844 210.719 46.5898 210.719 46.1641V43.2754C210.719 42.8379 210.764 42.4336 210.854 42.0625C210.947 41.6875 211.119 41.3613 211.369 41.084C211.623 40.8066 211.99 40.5918 212.471 40.4395C212.951 40.2832 213.578 40.2051 214.352 40.2051C215.09 40.2051 215.684 40.2812 216.133 40.4336C216.586 40.582 216.93 40.793 217.164 41.0664C217.398 41.3398 217.557 41.6621 217.639 42.0332C217.721 42.4004 217.762 42.8027 217.762 43.2402V43.3457L216.057 43.5449V43.1055C216.057 42.6992 216.006 42.3867 215.904 42.168C215.803 41.9453 215.629 41.791 215.383 41.7051C215.137 41.6152 214.793 41.5703 214.352 41.5703C213.707 41.5703 213.23 41.6719 212.922 41.875C212.613 42.0781 212.459 42.4766 212.459 43.0703V46.3398C212.459 46.7344 212.527 47.0371 212.664 47.248C212.801 47.4551 213.008 47.5977 213.285 47.6758C213.566 47.75 213.924 47.7871 214.357 47.7871C214.799 47.7871 215.143 47.75 215.389 47.6758C215.635 47.5977 215.807 47.4531 215.904 47.2422C216.006 47.0273 216.057 46.7148 216.057 46.3047V46.0293H217.762V46.1875C217.762 46.6133 217.723 47.0059 217.645 47.3652C217.566 47.7246 217.412 48.0391 217.182 48.3086C216.951 48.5742 216.609 48.7812 216.156 48.9297C215.703 49.0781 215.102 49.1523 214.352 49.1523ZM219.625 49V40.3516H223.357C224.123 40.3516 224.715 40.459 225.133 40.6738C225.551 40.8887 225.84 41.1895 226 41.5762C226.164 41.9629 226.246 42.416 226.246 42.9355C226.246 43.291 226.213 43.625 226.146 43.9375C226.084 44.2461 225.961 44.5195 225.777 44.7578C225.594 44.9961 225.326 45.1875 224.975 45.332L226.645 49H224.84L223.322 45.584H221.365V49H219.625ZM221.365 44.3418H223.504C223.801 44.3418 224.025 44.2832 224.178 44.166C224.334 44.0449 224.439 43.8848 224.494 43.6855C224.553 43.4824 224.582 43.2578 224.582 43.0117C224.582 42.7773 224.557 42.5508 224.506 42.332C224.459 42.1133 224.363 41.9355 224.219 41.7988C224.078 41.6582 223.863 41.5879 223.574 41.5879H221.365V44.3418ZM228.133 47.6992H229.709V41.6465H228.133V40.3516H233.008V41.6465H231.443V47.6992H233.008V49H228.133V47.6992ZM235.047 40.3516H238.439C239.389 40.3516 240.096 40.5684 240.561 41.002C241.025 41.4316 241.258 42.1348 241.258 43.1113C241.258 43.7793 241.166 44.3281 240.982 44.7578C240.799 45.1836 240.488 45.5 240.051 45.707C239.617 45.9141 239.023 46.0176 238.27 46.0176H236.787V49H235.047V40.3516ZM238.545 44.7461C238.986 44.7461 239.277 44.6191 239.418 44.3652C239.559 44.1074 239.629 43.7188 239.629 43.1992C239.629 42.7461 239.561 42.3652 239.424 42.0566C239.287 41.7441 239.014 41.5879 238.604 41.5879H236.787V44.7461H238.545ZM244.393 49V41.6758H241.984V40.3516H248.535V41.6758H246.127V49H244.393Z" fill="#FBF9F9"/>
<path d="M170.652 48.6074L171.057 47.3184C171.342 47.4512 171.674 47.5605 172.053 47.6465C172.436 47.7324 172.779 47.7754 173.084 47.7754C173.631 47.7754 174.016 47.6426 174.238 47.377C174.461 47.1113 174.572 46.791 174.572 46.416V41.6758H171.596V40.3516H176.312V46.5273C176.312 47.3594 176.035 48.0039 175.48 48.4609C174.926 48.918 174.164 49.1465 173.195 49.1465C172.773 49.1465 172.34 49.1016 171.895 49.0117C171.449 48.9219 171.035 48.7871 170.652 48.6074ZM177.812 49L180.66 40.3516H182.969L185.852 49H184.006L183.525 47.3535H180.127L179.629 49H177.812ZM180.537 46.0059H183.127L181.855 41.6523L180.537 46.0059ZM185.723 40.3516H187.586L189.871 47.3418L192.086 40.3516H193.949L190.902 49H188.793L185.723 40.3516ZM193.82 49L196.668 40.3516H198.977L201.859 49H200.014L199.533 47.3535H196.135L195.637 49H193.82ZM196.545 46.0059H199.135L197.863 41.6523L196.545 46.0059ZM206.301 49.1523C205.711 49.1523 205.117 49.082 204.52 48.9414C203.922 48.8008 203.406 48.6094 202.973 48.3672L203.57 47.0957C203.902 47.2715 204.299 47.4316 204.76 47.5762C205.225 47.7168 205.725 47.7871 206.26 47.7871C206.615 47.7871 206.883 47.7363 207.062 47.6348C207.246 47.5332 207.369 47.3926 207.432 47.2129C207.498 47.0293 207.531 46.8203 207.531 46.5859C207.531 46.4258 207.504 46.2793 207.449 46.1465C207.395 46.0098 207.281 45.8848 207.109 45.7715C206.941 45.6543 206.684 45.5449 206.336 45.4434L204.859 45.0098C204.391 44.8691 204.025 44.6816 203.764 44.4473C203.506 44.209 203.324 43.9316 203.219 43.6152C203.117 43.2988 203.066 42.957 203.066 42.5898C203.066 42.0508 203.197 41.6055 203.459 41.2539C203.725 40.9023 204.084 40.6406 204.537 40.4688C204.994 40.293 205.506 40.2051 206.072 40.2051C206.643 40.2051 207.168 40.2598 207.648 40.3691C208.129 40.4785 208.568 40.6484 208.967 40.8789L208.475 42.1035C208.154 41.9512 207.805 41.8242 207.426 41.7227C207.047 41.6211 206.646 41.5703 206.225 41.5703C205.783 41.5703 205.432 41.6387 205.17 41.7754C204.908 41.9082 204.777 42.1602 204.777 42.5312C204.777 42.8281 204.854 43.0566 205.006 43.2168C205.162 43.377 205.459 43.5234 205.896 43.6562L207.367 44.0957C207.949 44.2715 208.387 44.5508 208.68 44.9336C208.973 45.3164 209.119 45.8477 209.119 46.5273C209.119 47.0156 209.021 47.459 208.826 47.8574C208.631 48.252 208.326 48.5664 207.912 48.8008C207.498 49.0352 206.961 49.1523 206.301 49.1523ZM214.352 49.1523C213.582 49.1523 212.957 49.0781 212.477 48.9297C212 48.7773 211.635 48.5664 211.381 48.2969C211.127 48.0273 210.953 47.7109 210.859 47.3477C210.766 46.9844 210.719 46.5898 210.719 46.1641V43.2754C210.719 42.8379 210.764 42.4336 210.854 42.0625C210.947 41.6875 211.119 41.3613 211.369 41.084C211.623 40.8066 211.99 40.5918 212.471 40.4395C212.951 40.2832 213.578 40.2051 214.352 40.2051C215.09 40.2051 215.684 40.2812 216.133 40.4336C216.586 40.582 216.93 40.793 217.164 41.0664C217.398 41.3398 217.557 41.6621 217.639 42.0332C217.721 42.4004 217.762 42.8027 217.762 43.2402V43.3457L216.057 43.5449V43.1055C216.057 42.6992 216.006 42.3867 215.904 42.168C215.803 41.9453 215.629 41.791 215.383 41.7051C215.137 41.6152 214.793 41.5703 214.352 41.5703C213.707 41.5703 213.23 41.6719 212.922 41.875C212.613 42.0781 212.459 42.4766 212.459 43.0703V46.3398C212.459 46.7344 212.527 47.0371 212.664 47.248C212.801 47.4551 213.008 47.5977 213.285 47.6758C213.566 47.75 213.924 47.7871 214.357 47.7871C214.799 47.7871 215.143 47.75 215.389 47.6758C215.635 47.5977 215.807 47.4531 215.904 47.2422C216.006 47.0273 216.057 46.7148 216.057 46.3047V46.0293H217.762V46.1875C217.762 46.6133 217.723 47.0059 217.645 47.3652C217.566 47.7246 217.412 48.0391 217.182 48.3086C216.951 48.5742 216.609 48.7812 216.156 48.9297C215.703 49.0781 215.102 49.1523 214.352 49.1523ZM219.625 49V40.3516H223.357C224.123 40.3516 224.715 40.459 225.133 40.6738C225.551 40.8887 225.84 41.1895 226 41.5762C226.164 41.9629 226.246 42.416 226.246 42.9355C226.246 43.291 226.213 43.625 226.146 43.9375C226.084 44.2461 225.961 44.5195 225.777 44.7578C225.594 44.9961 225.326 45.1875 224.975 45.332L226.645 49H224.84L223.322 45.584H221.365V49H219.625ZM221.365 44.3418H223.504C223.801 44.3418 224.025 44.2832 224.178 44.166C224.334 44.0449 224.439 43.8848 224.494 43.6855C224.553 43.4824 224.582 43.2578 224.582 43.0117C224.582 42.7773 224.557 42.5508 224.506 42.332C224.459 42.1133 224.363 41.9355 224.219 41.7988C224.078 41.6582 223.863 41.5879 223.574 41.5879H221.365V44.3418ZM228.133 47.6992H229.709V41.6465H228.133V40.3516H233.008V41.6465H231.443V47.6992H233.008V49H228.133V47.6992ZM235.047 40.3516H238.439C239.389 40.3516 240.096 40.5684 240.561 41.002C241.025 41.4316 241.258 42.1348 241.258 43.1113C241.258 43.7793 241.166 44.3281 240.982 44.7578C240.799 45.1836 240.488 45.5 240.051 45.707C239.617 45.9141 239.023 46.0176 238.27 46.0176H236.787V49H235.047V40.3516ZM238.545 44.7461C238.986 44.7461 239.277 44.6191 239.418 44.3652C239.559 44.1074 239.629 43.7188 239.629 43.1992C239.629 42.7461 239.561 42.3652 239.424 42.0566C239.287 41.7441 239.014 41.5879 238.604 41.5879H236.787V44.7461H238.545ZM244.393 49V41.6758H241.984V40.3516H248.535V41.6758H246.127V49H244.393Z" fill="#FCFCFC" fill-opacity="0.32"/>
</g>
<g filter="url(#filter5_d_0_1)">
<path d="M306.613 8.60742L307.018 7.31836C307.303 7.45117 307.635 7.56055 308.014 7.64648C308.396 7.73242 308.74 7.77539 309.045 7.77539C309.592 7.77539 309.977 7.64258 310.199 7.37695C310.422 7.11133 310.533 6.79102 310.533 6.41602V1.67578H307.557V0.351562H312.273V6.52734C312.273 7.35938 311.996 8.00391 311.441 8.46094C310.887 8.91797 310.125 9.14648 309.156 9.14648C308.734 9.14648 308.301 9.10156 307.855 9.01172C307.41 8.92188 306.996 8.78711 306.613 8.60742ZM317.395 9.15234C316.805 9.15234 316.211 9.08203 315.613 8.94141C315.016 8.80078 314.5 8.60938 314.066 8.36719L314.664 7.0957C314.996 7.27148 315.393 7.43164 315.854 7.57617C316.318 7.7168 316.818 7.78711 317.354 7.78711C317.709 7.78711 317.977 7.73633 318.156 7.63477C318.34 7.5332 318.463 7.39258 318.525 7.21289C318.592 7.0293 318.625 6.82031 318.625 6.58594C318.625 6.42578 318.598 6.2793 318.543 6.14648C318.488 6.00977 318.375 5.88477 318.203 5.77148C318.035 5.6543 317.777 5.54492 317.43 5.44336L315.953 5.00977C315.484 4.86914 315.119 4.68164 314.857 4.44727C314.6 4.20898 314.418 3.93164 314.312 3.61523C314.211 3.29883 314.16 2.95703 314.16 2.58984C314.16 2.05078 314.291 1.60547 314.553 1.25391C314.818 0.902344 315.178 0.640625 315.631 0.46875C316.088 0.292969 316.6 0.205078 317.166 0.205078C317.736 0.205078 318.262 0.259766 318.742 0.369141C319.223 0.478516 319.662 0.648438 320.061 0.878906L319.568 2.10352C319.248 1.95117 318.898 1.82422 318.52 1.72266C318.141 1.62109 317.74 1.57031 317.318 1.57031C316.877 1.57031 316.525 1.63867 316.264 1.77539C316.002 1.9082 315.871 2.16016 315.871 2.53125C315.871 2.82812 315.947 3.05664 316.1 3.2168C316.256 3.37695 316.553 3.52344 316.99 3.65625L318.461 4.0957C319.043 4.27148 319.48 4.55078 319.773 4.93359C320.066 5.31641 320.213 5.84766 320.213 6.52734C320.213 7.01562 320.115 7.45898 319.92 7.85742C319.725 8.25195 319.42 8.56641 319.006 8.80078C318.592 9.03516 318.055 9.15234 317.395 9.15234ZM321.168 0.351562H323.049L324.854 3.17578L326.611 0.351562H328.475L325.738 4.55859L328.574 9H326.693L324.719 5.91211L322.914 9H321.051L323.834 4.52344L321.168 0.351562Z" fill="#FBF9F9"/>
<path d="M306.613 8.60742L307.018 7.31836C307.303 7.45117 307.635 7.56055 308.014 7.64648C308.396 7.73242 308.74 7.77539 309.045 7.77539C309.592 7.77539 309.977 7.64258 310.199 7.37695C310.422 7.11133 310.533 6.79102 310.533 6.41602V1.67578H307.557V0.351562H312.273V6.52734C312.273 7.35938 311.996 8.00391 311.441 8.46094C310.887 8.91797 310.125 9.14648 309.156 9.14648C308.734 9.14648 308.301 9.10156 307.855 9.01172C307.41 8.92188 306.996 8.78711 306.613 8.60742ZM317.395 9.15234C316.805 9.15234 316.211 9.08203 315.613 8.94141C315.016 8.80078 314.5 8.60938 314.066 8.36719L314.664 7.0957C314.996 7.27148 315.393 7.43164 315.854 7.57617C316.318 7.7168 316.818 7.78711 317.354 7.78711C317.709 7.78711 317.977 7.73633 318.156 7.63477C318.34 7.5332 318.463 7.39258 318.525 7.21289C318.592 7.0293 318.625 6.82031 318.625 6.58594C318.625 6.42578 318.598 6.2793 318.543 6.14648C318.488 6.00977 318.375 5.88477 318.203 5.77148C318.035 5.6543 317.777 5.54492 317.43 5.44336L315.953 5.00977C315.484 4.86914 315.119 4.68164 314.857 4.44727C314.6 4.20898 314.418 3.93164 314.312 3.61523C314.211 3.29883 314.16 2.95703 314.16 2.58984C314.16 2.05078 314.291 1.60547 314.553 1.25391C314.818 0.902344 315.178 0.640625 315.631 0.46875C316.088 0.292969 316.6 0.205078 317.166 0.205078C317.736 0.205078 318.262 0.259766 318.742 0.369141C319.223 0.478516 319.662 0.648438 320.061 0.878906L319.568 2.10352C319.248 1.95117 318.898 1.82422 318.52 1.72266C318.141 1.62109 317.74 1.57031 317.318 1.57031C316.877 1.57031 316.525 1.63867 316.264 1.77539C316.002 1.9082 315.871 2.16016 315.871 2.53125C315.871 2.82812 315.947 3.05664 316.1 3.2168C316.256 3.37695 316.553 3.52344 316.99 3.65625L318.461 4.0957C319.043 4.27148 319.48 4.55078 319.773 4.93359C320.066 5.31641 320.213 5.84766 320.213 6.52734C320.213 7.01562 320.115 7.45898 319.92 7.85742C319.725 8.25195 319.42 8.56641 319.006 8.80078C318.592 9.03516 318.055 9.15234 317.395 9.15234ZM321.168 0.351562H323.049L324.854 3.17578L326.611 0.351562H328.475L325.738 4.55859L328.574 9H326.693L324.719 5.91211L322.914 9H321.051L323.834 4.52344L321.168 0.351562Z" fill="#FCFCFC" fill-opacity="0.32"/>
</g>
<g filter="url(#filter6_d_0_1)">
<path d="M278.652 170.607L279.057 169.318C279.342 169.451 279.674 169.561 280.053 169.646C280.436 169.732 280.779 169.775 281.084 169.775C281.631 169.775 282.016 169.643 282.238 169.377C282.461 169.111 282.572 168.791 282.572 168.416V163.676H279.596V162.352H284.312V168.527C284.312 169.359 284.035 170.004 283.48 170.461C282.926 170.918 282.164 171.146 281.195 171.146C280.773 171.146 280.34 171.102 279.895 171.012C279.449 170.922 279.035 170.787 278.652 170.607ZM285.812 171L288.66 162.352H290.969L293.852 171H292.006L291.525 169.354H288.127L287.629 171H285.812ZM288.537 168.006H291.127L289.855 163.652L288.537 168.006ZM293.723 162.352H295.586L297.871 169.342L300.086 162.352H301.949L298.902 171H296.793L293.723 162.352ZM301.82 171L304.668 162.352H306.977L309.859 171H308.014L307.533 169.354H304.135L303.637 171H301.82ZM304.545 168.006H307.135L305.863 163.652L304.545 168.006ZM314.301 171.152C313.711 171.152 313.117 171.082 312.52 170.941C311.922 170.801 311.406 170.609 310.973 170.367L311.57 169.096C311.902 169.271 312.299 169.432 312.76 169.576C313.225 169.717 313.725 169.787 314.26 169.787C314.615 169.787 314.883 169.736 315.062 169.635C315.246 169.533 315.369 169.393 315.432 169.213C315.498 169.029 315.531 168.82 315.531 168.586C315.531 168.426 315.504 168.279 315.449 168.146C315.395 168.01 315.281 167.885 315.109 167.771C314.941 167.654 314.684 167.545 314.336 167.443L312.859 167.01C312.391 166.869 312.025 166.682 311.764 166.447C311.506 166.209 311.324 165.932 311.219 165.615C311.117 165.299 311.066 164.957 311.066 164.59C311.066 164.051 311.197 163.605 311.459 163.254C311.725 162.902 312.084 162.641 312.537 162.469C312.994 162.293 313.506 162.205 314.072 162.205C314.643 162.205 315.168 162.26 315.648 162.369C316.129 162.479 316.568 162.648 316.967 162.879L316.475 164.104C316.154 163.951 315.805 163.824 315.426 163.723C315.047 163.621 314.646 163.57 314.225 163.57C313.783 163.57 313.432 163.639 313.17 163.775C312.908 163.908 312.777 164.16 312.777 164.531C312.777 164.828 312.854 165.057 313.006 165.217C313.162 165.377 313.459 165.523 313.896 165.656L315.367 166.096C315.949 166.271 316.387 166.551 316.68 166.934C316.973 167.316 317.119 167.848 317.119 168.527C317.119 169.016 317.021 169.459 316.826 169.857C316.631 170.252 316.326 170.566 315.912 170.801C315.498 171.035 314.961 171.152 314.301 171.152ZM322.352 171.152C321.582 171.152 320.957 171.078 320.477 170.93C320 170.777 319.635 170.566 319.381 170.297C319.127 170.027 318.953 169.711 318.859 169.348C318.766 168.984 318.719 168.59 318.719 168.164V165.275C318.719 164.838 318.764 164.434 318.854 164.062C318.947 163.688 319.119 163.361 319.369 163.084C319.623 162.807 319.99 162.592 320.471 162.439C320.951 162.283 321.578 162.205 322.352 162.205C323.09 162.205 323.684 162.281 324.133 162.434C324.586 162.582 324.93 162.793 325.164 163.066C325.398 163.34 325.557 163.662 325.639 164.033C325.721 164.4 325.762 164.803 325.762 165.24V165.346L324.057 165.545V165.105C324.057 164.699 324.006 164.387 323.904 164.168C323.803 163.945 323.629 163.791 323.383 163.705C323.137 163.615 322.793 163.57 322.352 163.57C321.707 163.57 321.23 163.672 320.922 163.875C320.613 164.078 320.459 164.477 320.459 165.07V168.34C320.459 168.734 320.527 169.037 320.664 169.248C320.801 169.455 321.008 169.598 321.285 169.676C321.566 169.75 321.924 169.787 322.357 169.787C322.799 169.787 323.143 169.75 323.389 169.676C323.635 169.598 323.807 169.453 323.904 169.242C324.006 169.027 324.057 168.715 324.057 168.305V168.029H325.762V168.188C325.762 168.613 325.723 169.006 325.645 169.365C325.566 169.725 325.412 170.039 325.182 170.309C324.951 170.574 324.609 170.781 324.156 170.93C323.703 171.078 323.102 171.152 322.352 171.152ZM327.625 171V162.352H331.357C332.123 162.352 332.715 162.459 333.133 162.674C333.551 162.889 333.84 163.189 334 163.576C334.164 163.963 334.246 164.416 334.246 164.936C334.246 165.291 334.213 165.625 334.146 165.938C334.084 166.246 333.961 166.52 333.777 166.758C333.594 166.996 333.326 167.188 332.975 167.332L334.645 171H332.84L331.322 167.584H329.365V171H327.625ZM329.365 166.342H331.504C331.801 166.342 332.025 166.283 332.178 166.166C332.334 166.045 332.439 165.885 332.494 165.686C332.553 165.482 332.582 165.258 332.582 165.012C332.582 164.777 332.557 164.551 332.506 164.332C332.459 164.113 332.363 163.936 332.219 163.799C332.078 163.658 331.863 163.588 331.574 163.588H329.365V166.342ZM336.133 169.699H337.709V163.646H336.133V162.352H341.008V163.646H339.443V169.699H341.008V171H336.133V169.699ZM343.047 162.352H346.439C347.389 162.352 348.096 162.568 348.561 163.002C349.025 163.432 349.258 164.135 349.258 165.111C349.258 165.779 349.166 166.328 348.982 166.758C348.799 167.184 348.488 167.5 348.051 167.707C347.617 167.914 347.023 168.018 346.27 168.018H344.787V171H343.047V162.352ZM346.545 166.746C346.986 166.746 347.277 166.619 347.418 166.365C347.559 166.107 347.629 165.719 347.629 165.199C347.629 164.746 347.561 164.365 347.424 164.057C347.287 163.744 347.014 163.588 346.604 163.588H344.787V166.746H346.545ZM352.393 171V163.676H349.984V162.352H356.535V163.676H354.127V171H352.393Z" fill="#FBF9F9"/>
<path d="M278.652 170.607L279.057 169.318C279.342 169.451 279.674 169.561 280.053 169.646C280.436 169.732 280.779 169.775 281.084 169.775C281.631 169.775 282.016 169.643 282.238 169.377C282.461 169.111 282.572 168.791 282.572 168.416V163.676H279.596V162.352H284.312V168.527C284.312 169.359 284.035 170.004 283.48 170.461C282.926 170.918 282.164 171.146 281.195 171.146C280.773 171.146 280.34 171.102 279.895 171.012C279.449 170.922 279.035 170.787 278.652 170.607ZM285.812 171L288.66 162.352H290.969L293.852 171H292.006L291.525 169.354H288.127L287.629 171H285.812ZM288.537 168.006H291.127L289.855 163.652L288.537 168.006ZM293.723 162.352H295.586L297.871 169.342L300.086 162.352H301.949L298.902 171H296.793L293.723 162.352ZM301.82 171L304.668 162.352H306.977L309.859 171H308.014L307.533 169.354H304.135L303.637 171H301.82ZM304.545 168.006H307.135L305.863 163.652L304.545 168.006ZM314.301 171.152C313.711 171.152 313.117 171.082 312.52 170.941C311.922 170.801 311.406 170.609 310.973 170.367L311.57 169.096C311.902 169.271 312.299 169.432 312.76 169.576C313.225 169.717 313.725 169.787 314.26 169.787C314.615 169.787 314.883 169.736 315.062 169.635C315.246 169.533 315.369 169.393 315.432 169.213C315.498 169.029 315.531 168.82 315.531 168.586C315.531 168.426 315.504 168.279 315.449 168.146C315.395 168.01 315.281 167.885 315.109 167.771C314.941 167.654 314.684 167.545 314.336 167.443L312.859 167.01C312.391 166.869 312.025 166.682 311.764 166.447C311.506 166.209 311.324 165.932 311.219 165.615C311.117 165.299 311.066 164.957 311.066 164.59C311.066 164.051 311.197 163.605 311.459 163.254C311.725 162.902 312.084 162.641 312.537 162.469C312.994 162.293 313.506 162.205 314.072 162.205C314.643 162.205 315.168 162.26 315.648 162.369C316.129 162.479 316.568 162.648 316.967 162.879L316.475 164.104C316.154 163.951 315.805 163.824 315.426 163.723C315.047 163.621 314.646 163.57 314.225 163.57C313.783 163.57 313.432 163.639 313.17 163.775C312.908 163.908 312.777 164.16 312.777 164.531C312.777 164.828 312.854 165.057 313.006 165.217C313.162 165.377 313.459 165.523 313.896 165.656L315.367 166.096C315.949 166.271 316.387 166.551 316.68 166.934C316.973 167.316 317.119 167.848 317.119 168.527C317.119 169.016 317.021 169.459 316.826 169.857C316.631 170.252 316.326 170.566 315.912 170.801C315.498 171.035 314.961 171.152 314.301 171.152ZM322.352 171.152C321.582 171.152 320.957 171.078 320.477 170.93C320 170.777 319.635 170.566 319.381 170.297C319.127 170.027 318.953 169.711 318.859 169.348C318.766 168.984 318.719 168.59 318.719 168.164V165.275C318.719 164.838 318.764 164.434 318.854 164.062C318.947 163.688 319.119 163.361 319.369 163.084C319.623 162.807 319.99 162.592 320.471 162.439C320.951 162.283 321.578 162.205 322.352 162.205C323.09 162.205 323.684 162.281 324.133 162.434C324.586 162.582 324.93 162.793 325.164 163.066C325.398 163.34 325.557 163.662 325.639 164.033C325.721 164.4 325.762 164.803 325.762 165.24V165.346L324.057 165.545V165.105C324.057 164.699 324.006 164.387 323.904 164.168C323.803 163.945 323.629 163.791 323.383 163.705C323.137 163.615 322.793 163.57 322.352 163.57C321.707 163.57 321.23 163.672 320.922 163.875C320.613 164.078 320.459 164.477 320.459 165.07V168.34C320.459 168.734 320.527 169.037 320.664 169.248C320.801 169.455 321.008 169.598 321.285 169.676C321.566 169.75 321.924 169.787 322.357 169.787C322.799 169.787 323.143 169.75 323.389 169.676C323.635 169.598 323.807 169.453 323.904 169.242C324.006 169.027 324.057 168.715 324.057 168.305V168.029H325.762V168.188C325.762 168.613 325.723 169.006 325.645 169.365C325.566 169.725 325.412 170.039 325.182 170.309C324.951 170.574 324.609 170.781 324.156 170.93C323.703 171.078 323.102 171.152 322.352 171.152ZM327.625 171V162.352H331.357C332.123 162.352 332.715 162.459 333.133 162.674C333.551 162.889 333.84 163.189 334 163.576C334.164 163.963 334.246 164.416 334.246 164.936C334.246 165.291 334.213 165.625 334.146 165.938C334.084 166.246 333.961 166.52 333.777 166.758C333.594 166.996 333.326 167.188 332.975 167.332L334.645 171H332.84L331.322 167.584H329.365V171H327.625ZM329.365 166.342H331.504C331.801 166.342 332.025 166.283 332.178 166.166C332.334 166.045 332.439 165.885 332.494 165.686C332.553 165.482 332.582 165.258 332.582 165.012C332.582 164.777 332.557 164.551 332.506 164.332C332.459 164.113 332.363 163.936 332.219 163.799C332.078 163.658 331.863 163.588 331.574 163.588H329.365V166.342ZM336.133 169.699H337.709V163.646H336.133V162.352H341.008V163.646H339.443V169.699H341.008V171H336.133V169.699ZM343.047 162.352H346.439C347.389 162.352 348.096 162.568 348.561 163.002C349.025 163.432 349.258 164.135 349.258 165.111C349.258 165.779 349.166 166.328 348.982 166.758C348.799 167.184 348.488 167.5 348.051 167.707C347.617 167.914 347.023 168.018 346.27 168.018H344.787V171H343.047V162.352ZM346.545 166.746C346.986 166.746 347.277 166.619 347.418 166.365C347.559 166.107 347.629 165.719 347.629 165.199C347.629 164.746 347.561 164.365 347.424 164.057C347.287 163.744 347.014 163.588 346.604 163.588H344.787V166.746H346.545ZM352.393 171V163.676H349.984V162.352H356.535V163.676H354.127V171H352.393Z" fill="#FCFCFC" fill-opacity="0.32"/>
</g>
<g filter="url(#filter7_d_0_1)">
<path d="M29.6523 168.607L30.0566 167.318C30.3418 167.451 30.6738 167.561 31.0527 167.646C31.4355 167.732 31.7793 167.775 32.084 167.775C32.6309 167.775 33.0156 167.643 33.2383 167.377C33.4609 167.111 33.5723 166.791 33.5723 166.416V161.676H30.5957V160.352H35.3125V166.527C35.3125 167.359 35.0352 168.004 34.4805 168.461C33.9258 168.918 33.1641 169.146 32.1953 169.146C31.7734 169.146 31.3398 169.102 30.8945 169.012C30.4492 168.922 30.0352 168.787 29.6523 168.607ZM36.8125 169L39.6602 160.352H41.9688L44.8516 169H43.0059L42.5254 167.354H39.127L38.6289 169H36.8125ZM39.5371 166.006H42.127L40.8555 161.652L39.5371 166.006ZM44.7227 160.352H46.5859L48.8711 167.342L51.0859 160.352H52.9492L49.9023 169H47.793L44.7227 160.352ZM52.8203 169L55.668 160.352H57.9766L60.8594 169H59.0137L58.5332 167.354H55.1348L54.6367 169H52.8203ZM55.5449 166.006H58.1348L56.8633 161.652L55.5449 166.006ZM65.3008 169.152C64.7109 169.152 64.1172 169.082 63.5195 168.941C62.9219 168.801 62.4062 168.609 61.9727 168.367L62.5703 167.096C62.9023 167.271 63.2988 167.432 63.7598 167.576C64.2246 167.717 64.7246 167.787 65.2598 167.787C65.6152 167.787 65.8828 167.736 66.0625 167.635C66.2461 167.533 66.3691 167.393 66.4316 167.213C66.498 167.029 66.5312 166.82 66.5312 166.586C66.5312 166.426 66.5039 166.279 66.4492 166.146C66.3945 166.01 66.2812 165.885 66.1094 165.771C65.9414 165.654 65.6836 165.545 65.3359 165.443L63.8594 165.01C63.3906 164.869 63.0254 164.682 62.7637 164.447C62.5059 164.209 62.3242 163.932 62.2188 163.615C62.1172 163.299 62.0664 162.957 62.0664 162.59C62.0664 162.051 62.1973 161.605 62.459 161.254C62.7246 160.902 63.084 160.641 63.5371 160.469C63.9941 160.293 64.5059 160.205 65.0723 160.205C65.6426 160.205 66.168 160.26 66.6484 160.369C67.1289 160.479 67.5684 160.648 67.9668 160.879L67.4746 162.104C67.1543 161.951 66.8047 161.824 66.4258 161.723C66.0469 161.621 65.6465 161.57 65.2246 161.57C64.7832 161.57 64.4316 161.639 64.1699 161.775C63.9082 161.908 63.7773 162.16 63.7773 162.531C63.7773 162.828 63.8535 163.057 64.0059 163.217C64.1621 163.377 64.459 163.523 64.8965 163.656L66.3672 164.096C66.9492 164.271 67.3867 164.551 67.6797 164.934C67.9727 165.316 68.1191 165.848 68.1191 166.527C68.1191 167.016 68.0215 167.459 67.8262 167.857C67.6309 168.252 67.3262 168.566 66.9121 168.801C66.498 169.035 65.9609 169.152 65.3008 169.152ZM73.3516 169.152C72.582 169.152 71.957 169.078 71.4766 168.93C71 168.777 70.6348 168.566 70.3809 168.297C70.127 168.027 69.9531 167.711 69.8594 167.348C69.7656 166.984 69.7188 166.59 69.7188 166.164V163.275C69.7188 162.838 69.7637 162.434 69.8535 162.062C69.9473 161.688 70.1191 161.361 70.3691 161.084C70.623 160.807 70.9902 160.592 71.4707 160.439C71.9512 160.283 72.5781 160.205 73.3516 160.205C74.0898 160.205 74.6836 160.281 75.1328 160.434C75.5859 160.582 75.9297 160.793 76.1641 161.066C76.3984 161.34 76.5566 161.662 76.6387 162.033C76.7207 162.4 76.7617 162.803 76.7617 163.24V163.346L75.0566 163.545V163.105C75.0566 162.699 75.0059 162.387 74.9043 162.168C74.8027 161.945 74.6289 161.791 74.3828 161.705C74.1367 161.615 73.793 161.57 73.3516 161.57C72.707 161.57 72.2305 161.672 71.9219 161.875C71.6133 162.078 71.459 162.477 71.459 163.07V166.34C71.459 166.734 71.5273 167.037 71.6641 167.248C71.8008 167.455 72.0078 167.598 72.2852 167.676C72.5664 167.75 72.9238 167.787 73.3574 167.787C73.7988 167.787 74.1426 167.75 74.3887 167.676C74.6348 167.598 74.8066 167.453 74.9043 167.242C75.0059 167.027 75.0566 166.715 75.0566 166.305V166.029H76.7617V166.188C76.7617 166.613 76.7227 167.006 76.6445 167.365C76.5664 167.725 76.4121 168.039 76.1816 168.309C75.9512 168.574 75.6094 168.781 75.1562 168.93C74.7031 169.078 74.1016 169.152 73.3516 169.152ZM78.625 169V160.352H82.3574C83.123 160.352 83.7148 160.459 84.1328 160.674C84.5508 160.889 84.8398 161.189 85 161.576C85.1641 161.963 85.2461 162.416 85.2461 162.936C85.2461 163.291 85.2129 163.625 85.1465 163.938C85.084 164.246 84.9609 164.52 84.7773 164.758C84.5938 164.996 84.3262 165.188 83.9746 165.332L85.6445 169H83.8398L82.3223 165.584H80.3652V169H78.625ZM80.3652 164.342H82.5039C82.8008 164.342 83.0254 164.283 83.1777 164.166C83.334 164.045 83.4395 163.885 83.4941 163.686C83.5527 163.482 83.582 163.258 83.582 163.012C83.582 162.777 83.5566 162.551 83.5059 162.332C83.459 162.113 83.3633 161.936 83.2188 161.799C83.0781 161.658 82.8633 161.588 82.5742 161.588H80.3652V164.342ZM87.1328 167.699H88.709V161.646H87.1328V160.352H92.0078V161.646H90.4434V167.699H92.0078V169H87.1328V167.699ZM94.0469 160.352H97.4395C98.3887 160.352 99.0957 160.568 99.5605 161.002C100.025 161.432 100.258 162.135 100.258 163.111C100.258 163.779 100.166 164.328 99.9824 164.758C99.7988 165.184 99.4883 165.5 99.0508 165.707C98.6172 165.914 98.0234 166.018 97.2695 166.018H95.7871V169H94.0469V160.352ZM97.5449 164.746C97.9863 164.746 98.2773 164.619 98.418 164.365C98.5586 164.107 98.6289 163.719 98.6289 163.199C98.6289 162.746 98.5605 162.365 98.4238 162.057C98.2871 161.744 98.0137 161.588 97.6035 161.588H95.7871V164.746H97.5449ZM103.393 169V161.676H100.984V160.352H107.535V161.676H105.127V169H103.393Z" fill="#FBF9F9"/>
<path d="M29.6523 168.607L30.0566 167.318C30.3418 167.451 30.6738 167.561 31.0527 167.646C31.4355 167.732 31.7793 167.775 32.084 167.775C32.6309 167.775 33.0156 167.643 33.2383 167.377C33.4609 167.111 33.5723 166.791 33.5723 166.416V161.676H30.5957V160.352H35.3125V166.527C35.3125 167.359 35.0352 168.004 34.4805 168.461C33.9258 168.918 33.1641 169.146 32.1953 169.146C31.7734 169.146 31.3398 169.102 30.8945 169.012C30.4492 168.922 30.0352 168.787 29.6523 168.607ZM36.8125 169L39.6602 160.352H41.9688L44.8516 169H43.0059L42.5254 167.354H39.127L38.6289 169H36.8125ZM39.5371 166.006H42.127L40.8555 161.652L39.5371 166.006ZM44.7227 160.352H46.5859L48.8711 167.342L51.0859 160.352H52.9492L49.9023 169H47.793L44.7227 160.352ZM52.8203 169L55.668 160.352H57.9766L60.8594 169H59.0137L58.5332 167.354H55.1348L54.6367 169H52.8203ZM55.5449 166.006H58.1348L56.8633 161.652L55.5449 166.006ZM65.3008 169.152C64.7109 169.152 64.1172 169.082 63.5195 168.941C62.9219 168.801 62.4062 168.609 61.9727 168.367L62.5703 167.096C62.9023 167.271 63.2988 167.432 63.7598 167.576C64.2246 167.717 64.7246 167.787 65.2598 167.787C65.6152 167.787 65.8828 167.736 66.0625 167.635C66.2461 167.533 66.3691 167.393 66.4316 167.213C66.498 167.029 66.5312 166.82 66.5312 166.586C66.5312 166.426 66.5039 166.279 66.4492 166.146C66.3945 166.01 66.2812 165.885 66.1094 165.771C65.9414 165.654 65.6836 165.545 65.3359 165.443L63.8594 165.01C63.3906 164.869 63.0254 164.682 62.7637 164.447C62.5059 164.209 62.3242 163.932 62.2188 163.615C62.1172 163.299 62.0664 162.957 62.0664 162.59C62.0664 162.051 62.1973 161.605 62.459 161.254C62.7246 160.902 63.084 160.641 63.5371 160.469C63.9941 160.293 64.5059 160.205 65.0723 160.205C65.6426 160.205 66.168 160.26 66.6484 160.369C67.1289 160.479 67.5684 160.648 67.9668 160.879L67.4746 162.104C67.1543 161.951 66.8047 161.824 66.4258 161.723C66.0469 161.621 65.6465 161.57 65.2246 161.57C64.7832 161.57 64.4316 161.639 64.1699 161.775C63.9082 161.908 63.7773 162.16 63.7773 162.531C63.7773 162.828 63.8535 163.057 64.0059 163.217C64.1621 163.377 64.459 163.523 64.8965 163.656L66.3672 164.096C66.9492 164.271 67.3867 164.551 67.6797 164.934C67.9727 165.316 68.1191 165.848 68.1191 166.527C68.1191 167.016 68.0215 167.459 67.8262 167.857C67.6309 168.252 67.3262 168.566 66.9121 168.801C66.498 169.035 65.9609 169.152 65.3008 169.152ZM73.3516 169.152C72.582 169.152 71.957 169.078 71.4766 168.93C71 168.777 70.6348 168.566 70.3809 168.297C70.127 168.027 69.9531 167.711 69.8594 167.348C69.7656 166.984 69.7188 166.59 69.7188 166.164V163.275C69.7188 162.838 69.7637 162.434 69.8535 162.062C69.9473 161.688 70.1191 161.361 70.3691 161.084C70.623 160.807 70.9902 160.592 71.4707 160.439C71.9512 160.283 72.5781 160.205 73.3516 160.205C74.0898 160.205 74.6836 160.281 75.1328 160.434C75.5859 160.582 75.9297 160.793 76.1641 161.066C76.3984 161.34 76.5566 161.662 76.6387 162.033C76.7207 162.4 76.7617 162.803 76.7617 163.24V163.346L75.0566 163.545V163.105C75.0566 162.699 75.0059 162.387 74.9043 162.168C74.8027 161.945 74.6289 161.791 74.3828 161.705C74.1367 161.615 73.793 161.57 73.3516 161.57C72.707 161.57 72.2305 161.672 71.9219 161.875C71.6133 162.078 71.459 162.477 71.459 163.07V166.34C71.459 166.734 71.5273 167.037 71.6641 167.248C71.8008 167.455 72.0078 167.598 72.2852 167.676C72.5664 167.75 72.9238 167.787 73.3574 167.787C73.7988 167.787 74.1426 167.75 74.3887 167.676C74.6348 167.598 74.8066 167.453 74.9043 167.242C75.0059 167.027 75.0566 166.715 75.0566 166.305V166.029H76.7617V166.188C76.7617 166.613 76.7227 167.006 76.6445 167.365C76.5664 167.725 76.4121 168.039 76.1816 168.309C75.9512 168.574 75.6094 168.781 75.1562 168.93C74.7031 169.078 74.1016 169.152 73.3516 169.152ZM78.625 169V160.352H82.3574C83.123 160.352 83.7148 160.459 84.1328 160.674C84.5508 160.889 84.8398 161.189 85 161.576C85.1641 161.963 85.2461 162.416 85.2461 162.936C85.2461 163.291 85.2129 163.625 85.1465 163.938C85.084 164.246 84.9609 164.52 84.7773 164.758C84.5938 164.996 84.3262 165.188 83.9746 165.332L85.6445 169H83.8398L82.3223 165.584H80.3652V169H78.625ZM80.3652 164.342H82.5039C82.8008 164.342 83.0254 164.283 83.1777 164.166C83.334 164.045 83.4395 163.885 83.4941 163.686C83.5527 163.482 83.582 163.258 83.582 163.012C83.582 162.777 83.5566 162.551 83.5059 162.332C83.459 162.113 83.3633 161.936 83.2188 161.799C83.0781 161.658 82.8633 161.588 82.5742 161.588H80.3652V164.342ZM87.1328 167.699H88.709V161.646H87.1328V160.352H92.0078V161.646H90.4434V167.699H92.0078V169H87.1328V167.699ZM94.0469 160.352H97.4395C98.3887 160.352 99.0957 160.568 99.5605 161.002C100.025 161.432 100.258 162.135 100.258 163.111C100.258 163.779 100.166 164.328 99.9824 164.758C99.7988 165.184 99.4883 165.5 99.0508 165.707C98.6172 165.914 98.0234 166.018 97.2695 166.018H95.7871V169H94.0469V160.352ZM97.5449 164.746C97.9863 164.746 98.2773 164.619 98.418 164.365C98.5586 164.107 98.6289 163.719 98.6289 163.199C98.6289 162.746 98.5605 162.365 98.4238 162.057C98.2871 161.744 98.0137 161.588 97.6035 161.588H95.7871V164.746H97.5449ZM103.393 169V161.676H100.984V160.352H107.535V161.676H105.127V169H103.393Z" fill="#FCFCFC" fill-opacity="0.32"/>
</g>
<g filter="url(#filter8_d_0_1)">
<path d="M391.229 82V73.3516H394.961C395.727 73.3516 396.318 73.459 396.736 73.6738C397.154 73.8887 397.443 74.1895 397.604 74.5762C397.768 74.9629 397.85 75.416 397.85 75.9355C397.85 76.291 397.816 76.625 397.75 76.9375C397.688 77.2461 397.564 77.5195 397.381 77.7578C397.197 77.9961 396.93 78.1875 396.578 78.332L398.248 82H396.443L394.926 78.584H392.969V82H391.229ZM392.969 77.3418H395.107C395.404 77.3418 395.629 77.2832 395.781 77.166C395.938 77.0449 396.043 76.8848 396.098 76.6855C396.156 76.4824 396.186 76.2578 396.186 76.0117C396.186 75.7773 396.16 75.5508 396.109 75.332C396.062 75.1133 395.967 74.9355 395.822 74.7988C395.682 74.6582 395.467 74.5879 395.178 74.5879H392.969V77.3418ZM399.924 73.3516H405.59V74.6641H401.658V76.9609H405.145V78.2148H401.658V80.6875H405.654V82H399.924V73.3516ZM406.803 82L409.65 73.3516H411.959L414.842 82H412.996L412.516 80.3535H409.117L408.619 82H406.803ZM409.527 79.0059H412.117L410.846 74.6523L409.527 79.0059ZM419.729 82.1523C418.959 82.1523 418.334 82.0781 417.854 81.9297C417.377 81.7773 417.012 81.5664 416.758 81.2969C416.504 81.0273 416.33 80.7109 416.236 80.3477C416.143 79.9844 416.096 79.5898 416.096 79.1641V76.2754C416.096 75.8379 416.141 75.4336 416.23 75.0625C416.324 74.6875 416.496 74.3613 416.746 74.084C417 73.8066 417.367 73.5918 417.848 73.4395C418.328 73.2832 418.955 73.2051 419.729 73.2051C420.467 73.2051 421.061 73.2812 421.51 73.4336C421.963 73.582 422.307 73.793 422.541 74.0664C422.775 74.3398 422.934 74.6621 423.016 75.0332C423.098 75.4004 423.139 75.8027 423.139 76.2402V76.3457L421.434 76.5449V76.1055C421.434 75.6992 421.383 75.3867 421.281 75.168C421.18 74.9453 421.006 74.791 420.76 74.7051C420.514 74.6152 420.17 74.5703 419.729 74.5703C419.084 74.5703 418.607 74.6719 418.299 74.875C417.99 75.0781 417.836 75.4766 417.836 76.0703V79.3398C417.836 79.7344 417.904 80.0371 418.041 80.248C418.178 80.4551 418.385 80.5977 418.662 80.6758C418.943 80.75 419.301 80.7871 419.734 80.7871C420.176 80.7871 420.52 80.75 420.766 80.6758C421.012 80.5977 421.184 80.4531 421.281 80.2422C421.383 80.0273 421.434 79.7148 421.434 79.3047V79.0293H423.139V79.1875C423.139 79.6133 423.1 80.0059 423.021 80.3652C422.943 80.7246 422.789 81.0391 422.559 81.3086C422.328 81.5742 421.986 81.7812 421.533 81.9297C421.08 82.0781 420.479 82.1523 419.729 82.1523ZM426.52 82V74.6758H424.111V73.3516H430.662V74.6758H428.254V82H426.52Z" fill="#FBF9F9"/>
<path d="M391.229 82V73.3516H394.961C395.727 73.3516 396.318 73.459 396.736 73.6738C397.154 73.8887 397.443 74.1895 397.604 74.5762C397.768 74.9629 397.85 75.416 397.85 75.9355C397.85 76.291 397.816 76.625 397.75 76.9375C397.688 77.2461 397.564 77.5195 397.381 77.7578C397.197 77.9961 396.93 78.1875 396.578 78.332L398.248 82H396.443L394.926 78.584H392.969V82H391.229ZM392.969 77.3418H395.107C395.404 77.3418 395.629 77.2832 395.781 77.166C395.938 77.0449 396.043 76.8848 396.098 76.6855C396.156 76.4824 396.186 76.2578 396.186 76.0117C396.186 75.7773 396.16 75.5508 396.109 75.332C396.062 75.1133 395.967 74.9355 395.822 74.7988C395.682 74.6582 395.467 74.5879 395.178 74.5879H392.969V77.3418ZM399.924 73.3516H405.59V74.6641H401.658V76.9609H405.145V78.2148H401.658V80.6875H405.654V82H399.924V73.3516ZM406.803 82L409.65 73.3516H411.959L414.842 82H412.996L412.516 80.3535H409.117L408.619 82H406.803ZM409.527 79.0059H412.117L410.846 74.6523L409.527 79.0059ZM419.729 82.1523C418.959 82.1523 418.334 82.0781 417.854 81.9297C417.377 81.7773 417.012 81.5664 416.758 81.2969C416.504 81.0273 416.33 80.7109 416.236 80.3477C416.143 79.9844 416.096 79.5898 416.096 79.1641V76.2754C416.096 75.8379 416.141 75.4336 416.23 75.0625C416.324 74.6875 416.496 74.3613 416.746 74.084C417 73.8066 417.367 73.5918 417.848 73.4395C418.328 73.2832 418.955 73.2051 419.729 73.2051C420.467 73.2051 421.061 73.2812 421.51 73.4336C421.963 73.582 422.307 73.793 422.541 74.0664C422.775 74.3398 422.934 74.6621 423.016 75.0332C423.098 75.4004 423.139 75.8027 423.139 76.2402V76.3457L421.434 76.5449V76.1055C421.434 75.6992 421.383 75.3867 421.281 75.168C421.18 74.9453 421.006 74.791 420.76 74.7051C420.514 74.6152 420.17 74.5703 419.729 74.5703C419.084 74.5703 418.607 74.6719 418.299 74.875C417.99 75.0781 417.836 75.4766 417.836 76.0703V79.3398C417.836 79.7344 417.904 80.0371 418.041 80.248C418.178 80.4551 418.385 80.5977 418.662 80.6758C418.943 80.75 419.301 80.7871 419.734 80.7871C420.176 80.7871 420.52 80.75 420.766 80.6758C421.012 80.5977 421.184 80.4531 421.281 80.2422C421.383 80.0273 421.434 79.7148 421.434 79.3047V79.0293H423.139V79.1875C423.139 79.6133 423.1 80.0059 423.021 80.3652C422.943 80.7246 422.789 81.0391 422.559 81.3086C422.328 81.5742 421.986 81.7812 421.533 81.9297C421.08 82.0781 420.479 82.1523 419.729 82.1523ZM426.52 82V74.6758H424.111V73.3516H430.662V74.6758H428.254V82H426.52Z" fill="#FCFCFC" fill-opacity="0.32"/>
</g>
<g filter="url(#filter9_d_0_1)">
<path d="M185.166 140.352H186.473L190.967 146.281V140.352H192.514V149H191.207L186.73 143.158V149H185.166V140.352ZM194.74 140.352H200.406V141.664H196.475V143.961H199.961V145.215H196.475V147.688H200.471V149H194.74V140.352ZM201.502 140.352H203.383L205.188 143.176L206.945 140.352H208.809L206.072 144.559L208.908 149H207.027L205.053 145.912L203.248 149H201.385L204.168 144.523L201.502 140.352ZM211.762 149V141.676H209.354V140.352H215.904V141.676H213.496V149H211.762ZM217.152 147.336H218.898V149H217.152V147.336ZM220.686 148.607L221.09 147.318C221.375 147.451 221.707 147.561 222.086 147.646C222.469 147.732 222.812 147.775 223.117 147.775C223.664 147.775 224.049 147.643 224.271 147.377C224.494 147.111 224.605 146.791 224.605 146.416V141.676H221.629V140.352H226.346V146.527C226.346 147.359 226.068 148.004 225.514 148.461C224.959 148.918 224.197 149.146 223.229 149.146C222.807 149.146 222.373 149.102 221.928 149.012C221.482 148.922 221.068 148.787 220.686 148.607ZM231.467 149.152C230.877 149.152 230.283 149.082 229.686 148.941C229.088 148.801 228.572 148.609 228.139 148.367L228.736 147.096C229.068 147.271 229.465 147.432 229.926 147.576C230.391 147.717 230.891 147.787 231.426 147.787C231.781 147.787 232.049 147.736 232.229 147.635C232.412 147.533 232.535 147.393 232.598 147.213C232.664 147.029 232.697 146.82 232.697 146.586C232.697 146.426 232.67 146.279 232.615 146.146C232.561 146.01 232.447 145.885 232.275 145.771C232.107 145.654 231.85 145.545 231.502 145.443L230.025 145.01C229.557 144.869 229.191 144.682 228.93 144.447C228.672 144.209 228.49 143.932 228.385 143.615C228.283 143.299 228.232 142.957 228.232 142.59C228.232 142.051 228.363 141.605 228.625 141.254C228.891 140.902 229.25 140.641 229.703 140.469C230.16 140.293 230.672 140.205 231.238 140.205C231.809 140.205 232.334 140.26 232.814 140.369C233.295 140.479 233.734 140.648 234.133 140.879L233.641 142.104C233.32 141.951 232.971 141.824 232.592 141.723C232.213 141.621 231.812 141.57 231.391 141.57C230.949 141.57 230.598 141.639 230.336 141.775C230.074 141.908 229.943 142.16 229.943 142.531C229.943 142.828 230.02 143.057 230.172 143.217C230.328 143.377 230.625 143.523 231.062 143.656L232.533 144.096C233.115 144.271 233.553 144.551 233.846 144.934C234.139 145.316 234.285 145.848 234.285 146.527C234.285 147.016 234.188 147.459 233.992 147.857C233.797 148.252 233.492 148.566 233.078 148.801C232.664 149.035 232.127 149.152 231.467 149.152Z" fill="#FBF9F9"/>
<path d="M185.166 140.352H186.473L190.967 146.281V140.352H192.514V149H191.207L186.73 143.158V149H185.166V140.352ZM194.74 140.352H200.406V141.664H196.475V143.961H199.961V145.215H196.475V147.688H200.471V149H194.74V140.352ZM201.502 140.352H203.383L205.188 143.176L206.945 140.352H208.809L206.072 144.559L208.908 149H207.027L205.053 145.912L203.248 149H201.385L204.168 144.523L201.502 140.352ZM211.762 149V141.676H209.354V140.352H215.904V141.676H213.496V149H211.762ZM217.152 147.336H218.898V149H217.152V147.336ZM220.686 148.607L221.09 147.318C221.375 147.451 221.707 147.561 222.086 147.646C222.469 147.732 222.812 147.775 223.117 147.775C223.664 147.775 224.049 147.643 224.271 147.377C224.494 147.111 224.605 146.791 224.605 146.416V141.676H221.629V140.352H226.346V146.527C226.346 147.359 226.068 148.004 225.514 148.461C224.959 148.918 224.197 149.146 223.229 149.146C222.807 149.146 222.373 149.102 221.928 149.012C221.482 148.922 221.068 148.787 220.686 148.607ZM231.467 149.152C230.877 149.152 230.283 149.082 229.686 148.941C229.088 148.801 228.572 148.609 228.139 148.367L228.736 147.096C229.068 147.271 229.465 147.432 229.926 147.576C230.391 147.717 230.891 147.787 231.426 147.787C231.781 147.787 232.049 147.736 232.229 147.635C232.412 147.533 232.535 147.393 232.598 147.213C232.664 147.029 232.697 146.82 232.697 146.586C232.697 146.426 232.67 146.279 232.615 146.146C232.561 146.01 232.447 145.885 232.275 145.771C232.107 145.654 231.85 145.545 231.502 145.443L230.025 145.01C229.557 144.869 229.191 144.682 228.93 144.447C228.672 144.209 228.49 143.932 228.385 143.615C228.283 143.299 228.232 142.957 228.232 142.59C228.232 142.051 228.363 141.605 228.625 141.254C228.891 140.902 229.25 140.641 229.703 140.469C230.16 140.293 230.672 140.205 231.238 140.205C231.809 140.205 232.334 140.26 232.814 140.369C233.295 140.479 233.734 140.648 234.133 140.879L233.641 142.104C233.32 141.951 232.971 141.824 232.592 141.723C232.213 141.621 231.812 141.57 231.391 141.57C230.949 141.57 230.598 141.639 230.336 141.775C230.074 141.908 229.943 142.16 229.943 142.531C229.943 142.828 230.02 143.057 230.172 143.217C230.328 143.377 230.625 143.523 231.062 143.656L232.533 144.096C233.115 144.271 233.553 144.551 233.846 144.934C234.139 145.316 234.285 145.848 234.285 146.527C234.285 147.016 234.188 147.459 233.992 147.857C233.797 148.252 233.492 148.566 233.078 148.801C232.664 149.035 232.127 149.152 231.467 149.152Z" fill="#FCFCFC" fill-opacity="0.32"/>
</g>
<g filter="url(#filter10_d_0_1)">
<path d="M140.334 113.152C139.744 113.152 139.15 113.082 138.553 112.941C137.955 112.801 137.439 112.609 137.006 112.367L137.604 111.096C137.936 111.271 138.332 111.432 138.793 111.576C139.258 111.717 139.758 111.787 140.293 111.787C140.648 111.787 140.916 111.736 141.096 111.635C141.279 111.533 141.402 111.393 141.465 111.213C141.531 111.029 141.564 110.82 141.564 110.586C141.564 110.426 141.537 110.279 141.482 110.146C141.428 110.01 141.314 109.885 141.143 109.771C140.975 109.654 140.717 109.545 140.369 109.443L138.893 109.01C138.424 108.869 138.059 108.682 137.797 108.447C137.539 108.209 137.357 107.932 137.252 107.615C137.15 107.299 137.1 106.957 137.1 106.59C137.1 106.051 137.23 105.605 137.492 105.254C137.758 104.902 138.117 104.641 138.57 104.469C139.027 104.293 139.539 104.205 140.105 104.205C140.676 104.205 141.201 104.26 141.682 104.369C142.162 104.479 142.602 104.648 143 104.879L142.508 106.104C142.188 105.951 141.838 105.824 141.459 105.723C141.08 105.621 140.68 105.57 140.258 105.57C139.816 105.57 139.465 105.639 139.203 105.775C138.941 105.908 138.811 106.16 138.811 106.531C138.811 106.828 138.887 107.057 139.039 107.217C139.195 107.377 139.492 107.523 139.93 107.656L141.4 108.096C141.982 108.271 142.42 108.551 142.713 108.934C143.006 109.316 143.152 109.848 143.152 110.527C143.152 111.016 143.055 111.459 142.859 111.857C142.664 112.252 142.359 112.566 141.945 112.801C141.531 113.035 140.994 113.152 140.334 113.152ZM144.225 113L147.072 104.352H149.381L152.264 113H150.418L149.938 111.354H146.539L146.041 113H144.225ZM146.949 110.006H149.539L148.268 105.652L146.949 110.006ZM156.705 113.152C156.115 113.152 155.521 113.082 154.924 112.941C154.326 112.801 153.811 112.609 153.377 112.367L153.975 111.096C154.307 111.271 154.703 111.432 155.164 111.576C155.629 111.717 156.129 111.787 156.664 111.787C157.02 111.787 157.287 111.736 157.467 111.635C157.65 111.533 157.773 111.393 157.836 111.213C157.902 111.029 157.936 110.82 157.936 110.586C157.936 110.426 157.908 110.279 157.854 110.146C157.799 110.01 157.686 109.885 157.514 109.771C157.346 109.654 157.088 109.545 156.74 109.443L155.264 109.01C154.795 108.869 154.43 108.682 154.168 108.447C153.91 108.209 153.729 107.932 153.623 107.615C153.521 107.299 153.471 106.957 153.471 106.59C153.471 106.051 153.602 105.605 153.863 105.254C154.129 104.902 154.488 104.641 154.941 104.469C155.398 104.293 155.91 104.205 156.477 104.205C157.047 104.205 157.572 104.26 158.053 104.369C158.533 104.479 158.973 104.648 159.371 104.879L158.879 106.104C158.559 105.951 158.209 105.824 157.83 105.723C157.451 105.621 157.051 105.57 156.629 105.57C156.188 105.57 155.836 105.639 155.574 105.775C155.312 105.908 155.182 106.16 155.182 106.531C155.182 106.828 155.258 107.057 155.41 107.217C155.566 107.377 155.863 107.523 156.301 107.656L157.771 108.096C158.354 108.271 158.791 108.551 159.084 108.934C159.377 109.316 159.523 109.848 159.523 110.527C159.523 111.016 159.426 111.459 159.23 111.857C159.035 112.252 158.73 112.566 158.316 112.801C157.902 113.035 157.365 113.152 156.705 113.152ZM164.217 113.152C163.627 113.152 163.033 113.082 162.436 112.941C161.838 112.801 161.322 112.609 160.889 112.367L161.486 111.096C161.818 111.271 162.215 111.432 162.676 111.576C163.141 111.717 163.641 111.787 164.176 111.787C164.531 111.787 164.799 111.736 164.979 111.635C165.162 111.533 165.285 111.393 165.348 111.213C165.414 111.029 165.447 110.82 165.447 110.586C165.447 110.426 165.42 110.279 165.365 110.146C165.311 110.01 165.197 109.885 165.025 109.771C164.857 109.654 164.6 109.545 164.252 109.443L162.775 109.01C162.307 108.869 161.941 108.682 161.68 108.447C161.422 108.209 161.24 107.932 161.135 107.615C161.033 107.299 160.982 106.957 160.982 106.59C160.982 106.051 161.113 105.605 161.375 105.254C161.641 104.902 162 104.641 162.453 104.469C162.91 104.293 163.422 104.205 163.988 104.205C164.559 104.205 165.084 104.26 165.564 104.369C166.045 104.479 166.484 104.648 166.883 104.879L166.391 106.104C166.07 105.951 165.721 105.824 165.342 105.723C164.963 105.621 164.562 105.57 164.141 105.57C163.699 105.57 163.348 105.639 163.086 105.775C162.824 105.908 162.693 106.16 162.693 106.531C162.693 106.828 162.77 107.057 162.922 107.217C163.078 107.377 163.375 107.523 163.812 107.656L165.283 108.096C165.865 108.271 166.303 108.551 166.596 108.934C166.889 109.316 167.035 109.848 167.035 110.527C167.035 111.016 166.938 111.459 166.742 111.857C166.547 112.252 166.242 112.566 165.828 112.801C165.414 113.035 164.877 113.152 164.217 113.152Z" fill="#FBF9F9"/>
<path d="M140.334 113.152C139.744 113.152 139.15 113.082 138.553 112.941C137.955 112.801 137.439 112.609 137.006 112.367L137.604 111.096C137.936 111.271 138.332 111.432 138.793 111.576C139.258 111.717 139.758 111.787 140.293 111.787C140.648 111.787 140.916 111.736 141.096 111.635C141.279 111.533 141.402 111.393 141.465 111.213C141.531 111.029 141.564 110.82 141.564 110.586C141.564 110.426 141.537 110.279 141.482 110.146C141.428 110.01 141.314 109.885 141.143 109.771C140.975 109.654 140.717 109.545 140.369 109.443L138.893 109.01C138.424 108.869 138.059 108.682 137.797 108.447C137.539 108.209 137.357 107.932 137.252 107.615C137.15 107.299 137.1 106.957 137.1 106.59C137.1 106.051 137.23 105.605 137.492 105.254C137.758 104.902 138.117 104.641 138.57 104.469C139.027 104.293 139.539 104.205 140.105 104.205C140.676 104.205 141.201 104.26 141.682 104.369C142.162 104.479 142.602 104.648 143 104.879L142.508 106.104C142.188 105.951 141.838 105.824 141.459 105.723C141.08 105.621 140.68 105.57 140.258 105.57C139.816 105.57 139.465 105.639 139.203 105.775C138.941 105.908 138.811 106.16 138.811 106.531C138.811 106.828 138.887 107.057 139.039 107.217C139.195 107.377 139.492 107.523 139.93 107.656L141.4 108.096C141.982 108.271 142.42 108.551 142.713 108.934C143.006 109.316 143.152 109.848 143.152 110.527C143.152 111.016 143.055 111.459 142.859 111.857C142.664 112.252 142.359 112.566 141.945 112.801C141.531 113.035 140.994 113.152 140.334 113.152ZM144.225 113L147.072 104.352H149.381L152.264 113H150.418L149.938 111.354H146.539L146.041 113H144.225ZM146.949 110.006H149.539L148.268 105.652L146.949 110.006ZM156.705 113.152C156.115 113.152 155.521 113.082 154.924 112.941C154.326 112.801 153.811 112.609 153.377 112.367L153.975 111.096C154.307 111.271 154.703 111.432 155.164 111.576C155.629 111.717 156.129 111.787 156.664 111.787C157.02 111.787 157.287 111.736 157.467 111.635C157.65 111.533 157.773 111.393 157.836 111.213C157.902 111.029 157.936 110.82 157.936 110.586C157.936 110.426 157.908 110.279 157.854 110.146C157.799 110.01 157.686 109.885 157.514 109.771C157.346 109.654 157.088 109.545 156.74 109.443L155.264 109.01C154.795 108.869 154.43 108.682 154.168 108.447C153.91 108.209 153.729 107.932 153.623 107.615C153.521 107.299 153.471 106.957 153.471 106.59C153.471 106.051 153.602 105.605 153.863 105.254C154.129 104.902 154.488 104.641 154.941 104.469C155.398 104.293 155.91 104.205 156.477 104.205C157.047 104.205 157.572 104.26 158.053 104.369C158.533 104.479 158.973 104.648 159.371 104.879L158.879 106.104C158.559 105.951 158.209 105.824 157.83 105.723C157.451 105.621 157.051 105.57 156.629 105.57C156.188 105.57 155.836 105.639 155.574 105.775C155.312 105.908 155.182 106.16 155.182 106.531C155.182 106.828 155.258 107.057 155.41 107.217C155.566 107.377 155.863 107.523 156.301 107.656L157.771 108.096C158.354 108.271 158.791 108.551 159.084 108.934C159.377 109.316 159.523 109.848 159.523 110.527C159.523 111.016 159.426 111.459 159.23 111.857C159.035 112.252 158.73 112.566 158.316 112.801C157.902 113.035 157.365 113.152 156.705 113.152ZM164.217 113.152C163.627 113.152 163.033 113.082 162.436 112.941C161.838 112.801 161.322 112.609 160.889 112.367L161.486 111.096C161.818 111.271 162.215 111.432 162.676 111.576C163.141 111.717 163.641 111.787 164.176 111.787C164.531 111.787 164.799 111.736 164.979 111.635C165.162 111.533 165.285 111.393 165.348 111.213C165.414 111.029 165.447 110.82 165.447 110.586C165.447 110.426 165.42 110.279 165.365 110.146C165.311 110.01 165.197 109.885 165.025 109.771C164.857 109.654 164.6 109.545 164.252 109.443L162.775 109.01C162.307 108.869 161.941 108.682 161.68 108.447C161.422 108.209 161.24 107.932 161.135 107.615C161.033 107.299 160.982 106.957 160.982 106.59C160.982 106.051 161.113 105.605 161.375 105.254C161.641 104.902 162 104.641 162.453 104.469C162.91 104.293 163.422 104.205 163.988 104.205C164.559 104.205 165.084 104.26 165.564 104.369C166.045 104.479 166.484 104.648 166.883 104.879L166.391 106.104C166.07 105.951 165.721 105.824 165.342 105.723C164.963 105.621 164.562 105.57 164.141 105.57C163.699 105.57 163.348 105.639 163.086 105.775C162.824 105.908 162.693 106.16 162.693 106.531C162.693 106.828 162.77 107.057 162.922 107.217C163.078 107.377 163.375 107.523 163.812 107.656L165.283 108.096C165.865 108.271 166.303 108.551 166.596 108.934C166.889 109.316 167.035 109.848 167.035 110.527C167.035 111.016 166.938 111.459 166.742 111.857C166.547 112.252 166.242 112.566 165.828 112.801C165.414 113.035 164.877 113.152 164.217 113.152Z" fill="#FCFCFC" fill-opacity="0.32"/>
</g>
<g filter="url(#filter11_d_0_1)">
<path d="M4.15234 84.6074L4.55664 83.3184C4.8418 83.4512 5.17383 83.5605 5.55273 83.6465C5.93555 83.7324 6.2793 83.7754 6.58398 83.7754C7.13086 83.7754 7.51562 83.6426 7.73828 83.377C7.96094 83.1113 8.07227 82.791 8.07227 82.416V77.6758H5.0957V76.3516H9.8125V82.5273C9.8125 83.3594 9.53516 84.0039 8.98047 84.4609C8.42578 84.918 7.66406 85.1465 6.69531 85.1465C6.27344 85.1465 5.83984 85.1016 5.39453 85.0117C4.94922 84.9219 4.53516 84.7871 4.15234 84.6074ZM11.3125 85L14.1602 76.3516H16.4688L19.3516 85H17.5059L17.0254 83.3535H13.627L13.1289 85H11.3125ZM14.0371 82.0059H16.627L15.3555 77.6523L14.0371 82.0059ZM19.2227 76.3516H21.0859L23.3711 83.3418L25.5859 76.3516H27.4492L24.4023 85H22.293L19.2227 76.3516ZM27.3203 85L30.168 76.3516H32.4766L35.3594 85H33.5137L33.0332 83.3535H29.6348L29.1367 85H27.3203ZM30.0449 82.0059H32.6348L31.3633 77.6523L30.0449 82.0059ZM39.8008 85.1523C39.2109 85.1523 38.6172 85.082 38.0195 84.9414C37.4219 84.8008 36.9062 84.6094 36.4727 84.3672L37.0703 83.0957C37.4023 83.2715 37.7988 83.4316 38.2598 83.5762C38.7246 83.7168 39.2246 83.7871 39.7598 83.7871C40.1152 83.7871 40.3828 83.7363 40.5625 83.6348C40.7461 83.5332 40.8691 83.3926 40.9316 83.2129C40.998 83.0293 41.0312 82.8203 41.0312 82.5859C41.0312 82.4258 41.0039 82.2793 40.9492 82.1465C40.8945 82.0098 40.7812 81.8848 40.6094 81.7715C40.4414 81.6543 40.1836 81.5449 39.8359 81.4434L38.3594 81.0098C37.8906 80.8691 37.5254 80.6816 37.2637 80.4473C37.0059 80.209 36.8242 79.9316 36.7188 79.6152C36.6172 79.2988 36.5664 78.957 36.5664 78.5898C36.5664 78.0508 36.6973 77.6055 36.959 77.2539C37.2246 76.9023 37.584 76.6406 38.0371 76.4688C38.4941 76.293 39.0059 76.2051 39.5723 76.2051C40.1426 76.2051 40.668 76.2598 41.1484 76.3691C41.6289 76.4785 42.0684 76.6484 42.4668 76.8789L41.9746 78.1035C41.6543 77.9512 41.3047 77.8242 40.9258 77.7227C40.5469 77.6211 40.1465 77.5703 39.7246 77.5703C39.2832 77.5703 38.9316 77.6387 38.6699 77.7754C38.4082 77.9082 38.2773 78.1602 38.2773 78.5312C38.2773 78.8281 38.3535 79.0566 38.5059 79.2168C38.6621 79.377 38.959 79.5234 39.3965 79.6562L40.8672 80.0957C41.4492 80.2715 41.8867 80.5508 42.1797 80.9336C42.4727 81.3164 42.6191 81.8477 42.6191 82.5273C42.6191 83.0156 42.5215 83.459 42.3262 83.8574C42.1309 84.252 41.8262 84.5664 41.4121 84.8008C40.998 85.0352 40.4609 85.1523 39.8008 85.1523ZM47.8516 85.1523C47.082 85.1523 46.457 85.0781 45.9766 84.9297C45.5 84.7773 45.1348 84.5664 44.8809 84.2969C44.627 84.0273 44.4531 83.7109 44.3594 83.3477C44.2656 82.9844 44.2188 82.5898 44.2188 82.1641V79.2754C44.2188 78.8379 44.2637 78.4336 44.3535 78.0625C44.4473 77.6875 44.6191 77.3613 44.8691 77.084C45.123 76.8066 45.4902 76.5918 45.9707 76.4395C46.4512 76.2832 47.0781 76.2051 47.8516 76.2051C48.5898 76.2051 49.1836 76.2812 49.6328 76.4336C50.0859 76.582 50.4297 76.793 50.6641 77.0664C50.8984 77.3398 51.0566 77.6621 51.1387 78.0332C51.2207 78.4004 51.2617 78.8027 51.2617 79.2402V79.3457L49.5566 79.5449V79.1055C49.5566 78.6992 49.5059 78.3867 49.4043 78.168C49.3027 77.9453 49.1289 77.791 48.8828 77.7051C48.6367 77.6152 48.293 77.5703 47.8516 77.5703C47.207 77.5703 46.7305 77.6719 46.4219 77.875C46.1133 78.0781 45.959 78.4766 45.959 79.0703V82.3398C45.959 82.7344 46.0273 83.0371 46.1641 83.248C46.3008 83.4551 46.5078 83.5977 46.7852 83.6758C47.0664 83.75 47.4238 83.7871 47.8574 83.7871C48.2988 83.7871 48.6426 83.75 48.8887 83.6758C49.1348 83.5977 49.3066 83.4531 49.4043 83.2422C49.5059 83.0273 49.5566 82.7148 49.5566 82.3047V82.0293H51.2617V82.1875C51.2617 82.6133 51.2227 83.0059 51.1445 83.3652C51.0664 83.7246 50.9121 84.0391 50.6816 84.3086C50.4512 84.5742 50.1094 84.7812 49.6562 84.9297C49.2031 85.0781 48.6016 85.1523 47.8516 85.1523ZM53.125 85V76.3516H56.8574C57.623 76.3516 58.2148 76.459 58.6328 76.6738C59.0508 76.8887 59.3398 77.1895 59.5 77.5762C59.6641 77.9629 59.7461 78.416 59.7461 78.9355C59.7461 79.291 59.7129 79.625 59.6465 79.9375C59.584 80.2461 59.4609 80.5195 59.2773 80.7578C59.0938 80.9961 58.8262 81.1875 58.4746 81.332L60.1445 85H58.3398L56.8223 81.584H54.8652V85H53.125ZM54.8652 80.3418H57.0039C57.3008 80.3418 57.5254 80.2832 57.6777 80.166C57.834 80.0449 57.9395 79.8848 57.9941 79.6855C58.0527 79.4824 58.082 79.2578 58.082 79.0117C58.082 78.7773 58.0566 78.5508 58.0059 78.332C57.959 78.1133 57.8633 77.9355 57.7188 77.7988C57.5781 77.6582 57.3633 77.5879 57.0742 77.5879H54.8652V80.3418ZM61.6328 83.6992H63.209V77.6465H61.6328V76.3516H66.5078V77.6465H64.9434V83.6992H66.5078V85H61.6328V83.6992ZM68.5469 76.3516H71.9395C72.8887 76.3516 73.5957 76.5684 74.0605 77.002C74.5254 77.4316 74.7578 78.1348 74.7578 79.1113C74.7578 79.7793 74.666 80.3281 74.4824 80.7578C74.2988 81.1836 73.9883 81.5 73.5508 81.707C73.1172 81.9141 72.5234 82.0176 71.7695 82.0176H70.2871V85H68.5469V76.3516ZM72.0449 80.7461C72.4863 80.7461 72.7773 80.6191 72.918 80.3652C73.0586 80.1074 73.1289 79.7188 73.1289 79.1992C73.1289 78.7461 73.0605 78.3652 72.9238 78.0566C72.7871 77.7441 72.5137 77.5879 72.1035 77.5879H70.2871V80.7461H72.0449ZM77.8926 85V77.6758H75.4844V76.3516H82.0352V77.6758H79.627V85H77.8926Z" fill="#FBF9F9"/>
<path d="M4.15234 84.6074L4.55664 83.3184C4.8418 83.4512 5.17383 83.5605 5.55273 83.6465C5.93555 83.7324 6.2793 83.7754 6.58398 83.7754C7.13086 83.7754 7.51562 83.6426 7.73828 83.377C7.96094 83.1113 8.07227 82.791 8.07227 82.416V77.6758H5.0957V76.3516H9.8125V82.5273C9.8125 83.3594 9.53516 84.0039 8.98047 84.4609C8.42578 84.918 7.66406 85.1465 6.69531 85.1465C6.27344 85.1465 5.83984 85.1016 5.39453 85.0117C4.94922 84.9219 4.53516 84.7871 4.15234 84.6074ZM11.3125 85L14.1602 76.3516H16.4688L19.3516 85H17.5059L17.0254 83.3535H13.627L13.1289 85H11.3125ZM14.0371 82.0059H16.627L15.3555 77.6523L14.0371 82.0059ZM19.2227 76.3516H21.0859L23.3711 83.3418L25.5859 76.3516H27.4492L24.4023 85H22.293L19.2227 76.3516ZM27.3203 85L30.168 76.3516H32.4766L35.3594 85H33.5137L33.0332 83.3535H29.6348L29.1367 85H27.3203ZM30.0449 82.0059H32.6348L31.3633 77.6523L30.0449 82.0059ZM39.8008 85.1523C39.2109 85.1523 38.6172 85.082 38.0195 84.9414C37.4219 84.8008 36.9062 84.6094 36.4727 84.3672L37.0703 83.0957C37.4023 83.2715 37.7988 83.4316 38.2598 83.5762C38.7246 83.7168 39.2246 83.7871 39.7598 83.7871C40.1152 83.7871 40.3828 83.7363 40.5625 83.6348C40.7461 83.5332 40.8691 83.3926 40.9316 83.2129C40.998 83.0293 41.0312 82.8203 41.0312 82.5859C41.0312 82.4258 41.0039 82.2793 40.9492 82.1465C40.8945 82.0098 40.7812 81.8848 40.6094 81.7715C40.4414 81.6543 40.1836 81.5449 39.8359 81.4434L38.3594 81.0098C37.8906 80.8691 37.5254 80.6816 37.2637 80.4473C37.0059 80.209 36.8242 79.9316 36.7188 79.6152C36.6172 79.2988 36.5664 78.957 36.5664 78.5898C36.5664 78.0508 36.6973 77.6055 36.959 77.2539C37.2246 76.9023 37.584 76.6406 38.0371 76.4688C38.4941 76.293 39.0059 76.2051 39.5723 76.2051C40.1426 76.2051 40.668 76.2598 41.1484 76.3691C41.6289 76.4785 42.0684 76.6484 42.4668 76.8789L41.9746 78.1035C41.6543 77.9512 41.3047 77.8242 40.9258 77.7227C40.5469 77.6211 40.1465 77.5703 39.7246 77.5703C39.2832 77.5703 38.9316 77.6387 38.6699 77.7754C38.4082 77.9082 38.2773 78.1602 38.2773 78.5312C38.2773 78.8281 38.3535 79.0566 38.5059 79.2168C38.6621 79.377 38.959 79.5234 39.3965 79.6562L40.8672 80.0957C41.4492 80.2715 41.8867 80.5508 42.1797 80.9336C42.4727 81.3164 42.6191 81.8477 42.6191 82.5273C42.6191 83.0156 42.5215 83.459 42.3262 83.8574C42.1309 84.252 41.8262 84.5664 41.4121 84.8008C40.998 85.0352 40.4609 85.1523 39.8008 85.1523ZM47.8516 85.1523C47.082 85.1523 46.457 85.0781 45.9766 84.9297C45.5 84.7773 45.1348 84.5664 44.8809 84.2969C44.627 84.0273 44.4531 83.7109 44.3594 83.3477C44.2656 82.9844 44.2188 82.5898 44.2188 82.1641V79.2754C44.2188 78.8379 44.2637 78.4336 44.3535 78.0625C44.4473 77.6875 44.6191 77.3613 44.8691 77.084C45.123 76.8066 45.4902 76.5918 45.9707 76.4395C46.4512 76.2832 47.0781 76.2051 47.8516 76.2051C48.5898 76.2051 49.1836 76.2812 49.6328 76.4336C50.0859 76.582 50.4297 76.793 50.6641 77.0664C50.8984 77.3398 51.0566 77.6621 51.1387 78.0332C51.2207 78.4004 51.2617 78.8027 51.2617 79.2402V79.3457L49.5566 79.5449V79.1055C49.5566 78.6992 49.5059 78.3867 49.4043 78.168C49.3027 77.9453 49.1289 77.791 48.8828 77.7051C48.6367 77.6152 48.293 77.5703 47.8516 77.5703C47.207 77.5703 46.7305 77.6719 46.4219 77.875C46.1133 78.0781 45.959 78.4766 45.959 79.0703V82.3398C45.959 82.7344 46.0273 83.0371 46.1641 83.248C46.3008 83.4551 46.5078 83.5977 46.7852 83.6758C47.0664 83.75 47.4238 83.7871 47.8574 83.7871C48.2988 83.7871 48.6426 83.75 48.8887 83.6758C49.1348 83.5977 49.3066 83.4531 49.4043 83.2422C49.5059 83.0273 49.5566 82.7148 49.5566 82.3047V82.0293H51.2617V82.1875C51.2617 82.6133 51.2227 83.0059 51.1445 83.3652C51.0664 83.7246 50.9121 84.0391 50.6816 84.3086C50.4512 84.5742 50.1094 84.7812 49.6562 84.9297C49.2031 85.0781 48.6016 85.1523 47.8516 85.1523ZM53.125 85V76.3516H56.8574C57.623 76.3516 58.2148 76.459 58.6328 76.6738C59.0508 76.8887 59.3398 77.1895 59.5 77.5762C59.6641 77.9629 59.7461 78.416 59.7461 78.9355C59.7461 79.291 59.7129 79.625 59.6465 79.9375C59.584 80.2461 59.4609 80.5195 59.2773 80.7578C59.0938 80.9961 58.8262 81.1875 58.4746 81.332L60.1445 85H58.3398L56.8223 81.584H54.8652V85H53.125ZM54.8652 80.3418H57.0039C57.3008 80.3418 57.5254 80.2832 57.6777 80.166C57.834 80.0449 57.9395 79.8848 57.9941 79.6855C58.0527 79.4824 58.082 79.2578 58.082 79.0117C58.082 78.7773 58.0566 78.5508 58.0059 78.332C57.959 78.1133 57.8633 77.9355 57.7188 77.7988C57.5781 77.6582 57.3633 77.5879 57.0742 77.5879H54.8652V80.3418ZM61.6328 83.6992H63.209V77.6465H61.6328V76.3516H66.5078V77.6465H64.9434V83.6992H66.5078V85H61.6328V83.6992ZM68.5469 76.3516H71.9395C72.8887 76.3516 73.5957 76.5684 74.0605 77.002C74.5254 77.4316 74.7578 78.1348 74.7578 79.1113C74.7578 79.7793 74.666 80.3281 74.4824 80.7578C74.2988 81.1836 73.9883 81.5 73.5508 81.707C73.1172 81.9141 72.5234 82.0176 71.7695 82.0176H70.2871V85H68.5469V76.3516ZM72.0449 80.7461C72.4863 80.7461 72.7773 80.6191 72.918 80.3652C73.0586 80.1074 73.1289 79.7188 73.1289 79.1992C73.1289 78.7461 73.0605 78.3652 72.9238 78.0566C72.7871 77.7441 72.5137 77.5879 72.1035 77.5879H70.2871V80.7461H72.0449ZM77.8926 85V77.6758H75.4844V76.3516H82.0352V77.6758H79.627V85H77.8926Z" fill="#FCFCFC" fill-opacity="0.32"/>
</g>
<defs>
<filter id="filter0_d_0_1" x="65.1797" y="3.20508" width="49.3438" height="16.9473" filterUnits="userSpaceOnUse" color-interpolation-filters="sRGB">
<feFlood flood-opacity="0" result="BackgroundImageFix"/>
<feColorMatrix in="SourceAlpha" type="matrix" values="0 0 0 0 0 0 0 0 0 0 0 0 0 0 0 0 0 0 127 0" result="hardAlpha"/>
<feOffset dy="4"/>
<feGaussianBlur stdDeviation="2"/>
<feComposite in2="hardAlpha" operator="out"/>
<feColorMatrix type="matrix" values="0 0 0 0 0 0 0 0 0 0 0 0 0 0 0 0 0 0 0.15 0"/>
<feBlend mode="normal" in2="BackgroundImageFix" result="effect1_dropShadow_0_1"/>
<feBlend mode="normal" in="SourceGraphic" in2="effect1_dropShadow_0_1" result="shape"/>
</filter>
<filter id="filter1_d_0_1" x="98.9746" y="75.3516" width="72.3359" height="16.6484" filterUnits="userSpaceOnUse" color-interpolation-filters="sRGB">
<feFlood flood-opacity="0" result="BackgroundImageFix"/>
<feColorMatrix in="SourceAlpha" type="matrix" values="0 0 0 0 0 0 0 0 0 0 0 0 0 0 0 0 0 0 127 0" result="hardAlpha"/>
<feOffset dy="4"/>
<feGaussianBlur stdDeviation="2"/>
<feComposite in2="hardAlpha" operator="out"/>
<feColorMatrix type="matrix" values="0 0 0 0 0 0 0 0 0 0 0 0 0 0 0 0 0 0 0.15 0"/>
<feBlend mode="normal" in2="BackgroundImageFix" result="effect1_dropShadow_0_1"/>
<feBlend mode="normal" in="SourceGraphic" in2="effect1_dropShadow_0_1" result="shape"/>
</filter>
<filter id="filter2_d_0_1" x="256.561" y="106.205" width="30.1543" height="16.9473" filterUnits="userSpaceOnUse" color-interpolation-filters="sRGB">
<feFlood flood-opacity="0" result="BackgroundImageFix"/>
<feColorMatrix in="SourceAlpha" type="matrix" values="0 0 0 0 0 0 0 0 0 0 0 0 0 0 0 0 0 0 127 0" result="hardAlpha"/>
<feOffset dy="4"/>
<feGaussianBlur stdDeviation="2"/>
<feComposite in2="hardAlpha" operator="out"/>
<feColorMatrix type="matrix" values="0 0 0 0 0 0 0 0 0 0 0 0 0 0 0 0 0 0 0.15 0"/>
<feBlend mode="normal" in2="BackgroundImageFix" result="effect1_dropShadow_0_1"/>
<feBlend mode="normal" in="SourceGraphic" in2="effect1_dropShadow_0_1" result="shape"/>
</filter>
<filter id="filter3_d_0_1" x="262.652" y="75.2051" width="85.8828" height="16.9473" filterUnits="userSpaceOnUse" color-interpolation-filters="sRGB">
<feFlood flood-opacity="0" result="BackgroundImageFix"/>
<feColorMatrix in="SourceAlpha" type="matrix" values="0 0 0 0 0 0 0 0 0 0 0 0 0 0 0 0 0 0 127 0" result="hardAlpha"/>
<feOffset dy="4"/>
<feGaussianBlur stdDeviation="2"/>
<feComposite in2="hardAlpha" operator="out"/>
<feColorMatrix type="matrix" values="0 0 0 0 0 0 0 0 0 0 0 0 0 0 0 0 0 0 0.15 0"/>
<feBlend mode="normal" in2="BackgroundImageFix" result="effect1_dropShadow_0_1"/>
<feBlend mode="normal" in="SourceGraphic" in2="effect1_dropShadow_0_1" result="shape"/>
</filter>
<filter id="filter4_d_0_1" x="166.652" y="40.2051" width="85.8828" height="16.9473" filterUnits="userSpaceOnUse" color-interpolation-filters="sRGB">
<feFlood flood-opacity="0" result="BackgroundImageFix"/>
<feColorMatrix in="SourceAlpha" type="matrix" values="0 0 0 0 0 0 0 0 0 0 0 0 0 0 0 0 0 0 127 0" result="hardAlpha"/>
<feOffset dy="4"/>
<feGaussianBlur stdDeviation="2"/>
<feComposite in2="hardAlpha" operator="out"/>
<feColorMatrix type="matrix" values="0 0 0 0 0 0 0 0 0 0 0 0 0 0 0 0 0 0 0.15 0"/>
<feBlend mode="normal" in2="BackgroundImageFix" result="effect1_dropShadow_0_1"/>
<feBlend mode="normal" in="SourceGraphic" in2="effect1_dropShadow_0_1" result="shape"/>
</filter>
<filter id="filter5_d_0_1" x="302.613" y="0.205078" width="29.9609" height="16.9473" filterUnits="userSpaceOnUse" color-interpolation-filters="sRGB">
<feFlood flood-opacity="0" result="BackgroundImageFix"/>
<feColorMatrix in="SourceAlpha" type="matrix" values="0 0 0 0 0 0 0 0 0 0 0 0 0 0 0 0 0 0 127 0" result="hardAlpha"/>
<feOffset dy="4"/>
<feGaussianBlur stdDeviation="2"/>
<feComposite in2="hardAlpha" operator="out"/>
<feColorMatrix type="matrix" values="0 0 0 0 0 0 0 0 0 0 0 0 0 0 0 0 0 0 0.15 0"/>
<feBlend mode="normal" in2="BackgroundImageFix" result="effect1_dropShadow_0_1"/>
<feBlend mode="normal" in="SourceGraphic" in2="effect1_dropShadow_0_1" result="shape"/>
</filter>
<filter id="filter6_d_0_1" x="274.652" y="162.205" width="85.8828" height="16.9473" filterUnits="userSpaceOnUse" color-interpolation-filters="sRGB">
<feFlood flood-opacity="0" result="BackgroundImageFix"/>
<feColorMatrix in="SourceAlpha" type="matrix" values="0 0 0 0 0 0 0 0 0 0 0 0 0 0 0 0 0 0 127 0" result="hardAlpha"/>
<feOffset dy="4"/>
<feGaussianBlur stdDeviation="2"/>
<feComposite in2="hardAlpha" operator="out"/>
<feColorMatrix type="matrix" values="0 0 0 0 0 0 0 0 0 0 0 0 0 0 0 0 0 0 0.15 0"/>
<feBlend mode="normal" in2="BackgroundImageFix" result="effect1_dropShadow_0_1"/>
<feBlend mode="normal" in="SourceGraphic" in2="effect1_dropShadow_0_1" result="shape"/>
</filter>
<filter id="filter7_d_0_1" x="25.6523" y="160.205" width="85.8828" height="16.9473" filterUnits="userSpaceOnUse" color-interpolation-filters="sRGB">
<feFlood flood-opacity="0" result="BackgroundImageFix"/>
<feColorMatrix in="SourceAlpha" type="matrix" values="0 0 0 0 0 0 0 0 0 0 0 0 0 0 0 0 0 0 127 0" result="hardAlpha"/>
<feOffset dy="4"/>
<feGaussianBlur stdDeviation="2"/>
<feComposite in2="hardAlpha" operator="out"/>
<feColorMatrix type="matrix" values="0 0 0 0 0 0 0 0 0 0 0 0 0 0 0 0 0 0 0.15 0"/>
<feBlend mode="normal" in2="BackgroundImageFix" result="effect1_dropShadow_0_1"/>
<feBlend mode="normal" in="SourceGraphic" in2="effect1_dropShadow_0_1" result="shape"/>
</filter>
<filter id="filter8_d_0_1" x="387.229" y="73.2051" width="47.4336" height="16.9473" filterUnits="userSpaceOnUse" color-interpolation-filters="sRGB">
<feFlood flood-opacity="0" result="BackgroundImageFix"/>
<feColorMatrix in="SourceAlpha" type="matrix" values="0 0 0 0 0 0 0 0 0 0 0 0 0 0 0 0 0 0 127 0" result="hardAlpha"/>
<feOffset dy="4"/>
<feGaussianBlur stdDeviation="2"/>
<feComposite in2="hardAlpha" operator="out"/>
<feColorMatrix type="matrix" values="0 0 0 0 0 0 0 0 0 0 0 0 0 0 0 0 0 0 0.15 0"/>
<feBlend mode="normal" in2="BackgroundImageFix" result="effect1_dropShadow_0_1"/>
<feBlend mode="normal" in="SourceGraphic" in2="effect1_dropShadow_0_1" result="shape"/>
</filter>
<filter id="filter9_d_0_1" x="181.166" y="140.205" width="57.1191" height="16.9473" filterUnits="userSpaceOnUse" color-interpolation-filters="sRGB">
<feFlood flood-opacity="0" result="BackgroundImageFix"/>
<feColorMatrix in="SourceAlpha" type="matrix" values="0 0 0 0 0 0 0 0 0 0 0 0 0 0 0 0 0 0 127 0" result="hardAlpha"/>
<feOffset dy="4"/>
<feGaussianBlur stdDeviation="2"/>
<feComposite in2="hardAlpha" operator="out"/>
<feColorMatrix type="matrix" values="0 0 0 0 0 0 0 0 0 0 0 0 0 0 0 0 0 0 0.15 0"/>
<feBlend mode="normal" in2="BackgroundImageFix" result="effect1_dropShadow_0_1"/>
<feBlend mode="normal" in="SourceGraphic" in2="effect1_dropShadow_0_1" result="shape"/>
</filter>
<filter id="filter10_d_0_1" x="133.006" y="104.205" width="38.0293" height="16.9473" filterUnits="userSpaceOnUse" color-interpolation-filters="sRGB">
<feFlood flood-opacity="0" result="BackgroundImageFix"/>
<feColorMatrix in="SourceAlpha" type="matrix" values="0 0 0 0 0 0 0 0 0 0 0 0 0 0 0 0 0 0 127 0" result="hardAlpha"/>
<feOffset dy="4"/>
<feGaussianBlur stdDeviation="2"/>
<feComposite in2="hardAlpha" operator="out"/>
<feColorMatrix type="matrix" values="0 0 0 0 0 0 0 0 0 0 0 0 0 0 0 0 0 0 0.15 0"/>
<feBlend mode="normal" in2="BackgroundImageFix" result="effect1_dropShadow_0_1"/>
<feBlend mode="normal" in="SourceGraphic" in2="effect1_dropShadow_0_1" result="shape"/>
</filter>
<filter id="filter11_d_0_1" x="0.152344" y="76.2051" width="85.8828" height="16.9473" filterUnits="userSpaceOnUse" color-interpolation-filters="sRGB">
<feFlood flood-opacity="0" result="BackgroundImageFix"/>
<feColorMatrix in="SourceAlpha" type="matrix" values="0 0 0 0 0 0 0 0 0 0 0 0 0 0 0 0 0 0 127 0" result="hardAlpha"/>
<feOffset dy="4"/>
<feGaussianBlur stdDeviation="2"/>
<feComposite in2="hardAlpha" operator="out"/>
<feColorMatrix type="matrix" values="0 0 0 0 0 0 0 0 0 0 0 0 0 0 0 0 0 0 0.15 0"/>
<feBlend mode="normal" in2="BackgroundImageFix" result="effect1_dropShadow_0_1"/>
<feBlend mode="normal" in="SourceGraphic" in2="effect1_dropShadow_0_1" result="shape"/>
</filter>
</defs>
</svg>
