<svg xmlns="http://www.w3.org/2000/svg" xmlns:xlink="http://www.w3.org/1999/xlink" width="500" zoomAndPan="magnify" viewBox="0 0 375 374.999991" height="500" preserveAspectRatio="xMidYMid meet" version="1.0"><defs><g/><clipPath id="f71ccbb6cf"><path d="M 63.558594 158.238281 L 187.332031 158.238281 L 187.332031 216.761719 L 63.558594 216.761719 Z M 63.558594 158.238281 " clip-rule="nonzero"/></clipPath></defs><g clip-path="url(#f71ccbb6cf)"><path fill="#000000" d="M 63.558594 158.238281 L 187.515625 158.238281 L 187.515625 216.84375 L 63.558594 216.84375 Z M 63.558594 158.238281 " fill-opacity="1" fill-rule="nonzero"/></g><g fill="#ffffff" fill-opacity="1"><g transform="translate(78.161791, 192.518248)"><g><path d="M 5.925781 0 L 7.898438 0 L 12.957031 -13.65625 L 15.75 -6.140625 L 18.039062 0 L 20.011719 0 L 25.503906 -16.859375 L 23.289062 -16.859375 L 18.953125 -3.371094 L 13.96875 -16.859375 L 11.96875 -16.859375 L 6.984375 -3.394531 L 5.007812 -9.585938 L 2.671875 -16.859375 L 0.457031 -16.859375 Z M 5.925781 0 "/></g></g></g><g fill="#ffffff" fill-opacity="1"><g transform="translate(105.952933, 192.518248)"><g><path d="M 0.410156 0 L 2.671875 0 L 4.214844 -3.828125 L 12.425781 -3.828125 L 14.015625 0 L 16.253906 0 L 9.320312 -16.859375 L 7.34375 -16.859375 Z M 5.035156 -5.804688 L 8.332031 -13.894531 L 11.632812 -5.804688 Z M 5.035156 -5.804688 "/></g></g></g><g fill="#ffffff" fill-opacity="1"><g transform="translate(124.448441, 192.518248)"><g><path d="M 2.457031 0 L 4.574219 0 L 4.574219 -7.105469 L 11.488281 -7.105469 L 11.488281 -9.054688 L 4.574219 -9.054688 L 4.574219 -14.882812 L 12.113281 -14.882812 L 12.113281 -16.859375 L 2.457031 -16.859375 Z M 2.457031 0 "/></g></g></g><g fill="#ffffff" fill-opacity="1"><g transform="translate(139.71697, 192.518248)"><g><path d="M 0.410156 0 L 2.671875 0 L 4.214844 -3.828125 L 12.425781 -3.828125 L 14.015625 0 L 16.253906 0 L 9.320312 -16.859375 L 7.34375 -16.859375 Z M 5.035156 -5.804688 L 8.332031 -13.894531 L 11.632812 -5.804688 Z M 5.035156 -5.804688 "/></g></g></g><g fill="#ffffff" fill-opacity="1"><g transform="translate(158.212475, 192.518248)"><g><path d="M 2.457031 0 L 12.957031 0 L 12.957031 -1.976562 L 4.574219 -1.976562 L 4.574219 -7.609375 L 12.089844 -7.609375 L 12.089844 -9.5625 L 4.574219 -9.5625 L 4.574219 -14.882812 L 12.691406 -14.882812 L 12.691406 -16.859375 L 2.457031 -16.859375 Z M 2.457031 0 "/></g></g></g><g fill="#000000" fill-opacity="1"><g transform="translate(194.106363, 192.518248)"><g><path d="M 13.511719 0 L 15.628906 0 L 15.628906 -16.859375 L 13.511719 -16.859375 L 13.511719 -9.609375 L 4.574219 -9.609375 L 4.574219 -16.859375 L 2.457031 -16.859375 L 2.457031 0 L 4.574219 0 L 4.574219 -7.585938 L 13.511719 -7.585938 Z M 13.511719 0 "/></g></g></g><g fill="#000000" fill-opacity="1"><g transform="translate(212.191906, 192.518248)"><g><path d="M 0.410156 0 L 2.671875 0 L 4.214844 -3.828125 L 12.425781 -3.828125 L 14.015625 0 L 16.253906 0 L 9.320312 -16.859375 L 7.34375 -16.859375 Z M 5.035156 -5.804688 L 8.332031 -13.894531 L 11.632812 -5.804688 Z M 5.035156 -5.804688 "/></g></g></g><g fill="#000000" fill-opacity="1"><g transform="translate(228.856608, 192.518248)"><g><path d="M 2.457031 0 L 4.574219 0 L 4.574219 -12.910156 L 10.164062 -4.480469 L 11.898438 -4.480469 L 17.484375 -12.882812 L 17.484375 0 L 19.601562 0 L 19.601562 -16.859375 L 17.628906 -16.859375 L 11.054688 -6.863281 L 4.429688 -16.859375 L 2.457031 -16.859375 Z M 2.457031 0 "/></g></g></g><g fill="#000000" fill-opacity="1"><g transform="translate(250.915666, 192.518248)"><g><path d="M 2.457031 0 L 8.285156 0 C 13.460938 0 16.929688 -3.445312 16.929688 -8.429688 C 16.929688 -13.414062 13.460938 -16.859375 8.285156 -16.859375 L 2.457031 -16.859375 Z M 4.574219 -2.023438 L 4.574219 -14.835938 L 8.1875 -14.835938 C 12.113281 -14.835938 14.761719 -12.257812 14.761719 -8.429688 C 14.761719 -4.601562 12.136719 -2.023438 8.285156 -2.023438 Z M 4.574219 -2.023438 "/></g></g></g><g fill="#000000" fill-opacity="1"><g transform="translate(269.242027, 192.518248)"><g><path d="M 0.410156 0 L 2.671875 0 L 4.214844 -3.828125 L 12.425781 -3.828125 L 14.015625 0 L 16.253906 0 L 9.320312 -16.859375 L 7.34375 -16.859375 Z M 5.035156 -5.804688 L 8.332031 -13.894531 L 11.632812 -5.804688 Z M 5.035156 -5.804688 "/></g></g></g><g fill="#000000" fill-opacity="1"><g transform="translate(285.906729, 192.518248)"><g><path d="M 10.113281 0.3125 C 15.246094 0.3125 18.855469 -3.300781 18.855469 -8.429688 C 18.855469 -13.558594 15.246094 -17.171875 10.113281 -17.171875 C 4.984375 -17.171875 1.398438 -13.558594 1.398438 -8.429688 C 1.398438 -3.300781 4.984375 0.3125 10.113281 0.3125 Z M 3.5625 -8.429688 C 3.5625 -12.355469 6.238281 -15.050781 10.113281 -15.050781 C 13.992188 -15.050781 16.664062 -12.355469 16.664062 -8.429688 C 16.664062 -4.503906 13.992188 -1.804688 10.113281 -1.804688 C 6.238281 -1.804688 3.5625 -4.503906 3.5625 -8.429688 Z M 3.5625 -8.429688 "/></g></g></g><g fill="#000000" fill-opacity="1"><g transform="translate(306.135567, 192.518248)"><g><path d="M 8.765625 0.289062 C 12.835938 0.289062 15.292969 -2.382812 15.292969 -6.863281 L 15.292969 -16.859375 L 13.171875 -16.859375 L 13.171875 -7.007812 C 13.171875 -3.5625 11.65625 -1.78125 8.765625 -1.78125 C 5.898438 -1.78125 4.359375 -3.5625 4.359375 -7.007812 L 4.359375 -16.859375 L 2.265625 -16.859375 L 2.265625 -6.863281 C 2.265625 -2.382812 4.695312 0.289062 8.765625 0.289062 Z M 8.765625 0.289062 "/></g></g></g><g fill="#000000" fill-opacity="1"><g transform="translate(323.691306, 192.518248)"><g><path d="M 2.457031 0 L 4.574219 0 L 4.574219 -16.859375 L 2.457031 -16.859375 Z M 2.457031 0 "/></g></g></g></svg>